# Blender 3.4.1
# www.blender.org
mtllib horizontal_line.mtl
o Cube.002
v 318.035339 -1.137127 -5.103396
v -158.854370 -1.890975 -5.103375
v 318.035339 -1.137128 4.539425
v -158.854370 -1.890977 4.539446
v 318.027618 3.744482 -5.103395
v -158.862091 2.990633 -5.103374
v 318.027618 3.744481 4.539426
v -158.862091 2.990632 4.539446
vn 0.0016 -1.0000 -0.0000
vn -0.0000 -0.0000 1.0000
vn -0.0016 1.0000 -0.0000
vn -0.0000 -0.0000 -1.0000
vn 1.0000 0.0016 -0.0000
vn -1.0000 -0.0016 -0.0000
vt 0.375000 0.000000
vt 0.375000 1.000000
vt 0.125000 0.750000
vt 0.625000 0.000000
vt 0.625000 1.000000
vt 0.875000 0.750000
vt 0.375000 0.250000
vt 0.125000 0.500000
vt 0.625000 0.250000
vt 0.875000 0.500000
vt 0.375000 0.750000
vt 0.625000 0.750000
vt 0.375000 0.500000
vt 0.625000 0.500000
# s 0
usemtl Material.008
f 1/1/1 3/7/1 4/9/1 2/4/1
f 3/7/2 7/13/2 8/14/2 4/9/2
f 7/13/3 5/11/3 6/12/3 8/14/3
f 5/11/4 1/2/4 2/5/4 6/12/4
f 3/8/5 1/3/5 5/11/5 7/13/5
f 8/14/6 6/12/6 2/6/6 4/10/6
