# Blender v3.4.1 OBJ File: ''
# www.blender.org
mtllib torus.mtl
o Torus.001
v 17.587719 0.617468 -2.226483
v 17.473959 0.620177 -3.983705
v 16.968416 0.607702 -5.358341
v 16.276800 0.585925 -6.002342
v 15.657608 0.562660 -5.590033
v 15.238436 0.541677 -3.937064
v 14.898683 0.520292 -1.448533
v 12.782228 0.440158 0.121454
v 14.277766 0.486878 1.611751
v 16.317535 0.556275 2.154263
v 18.354982 0.629756 1.603625
v 19.844175 0.687632 0.107379
v 17.517681 -1.683535 -2.234930
v 17.404360 -1.666431 -3.992099
v 16.900820 -1.613151 -5.366494
v 16.211950 -1.544626 -6.010163
v 15.595228 -1.486771 -5.597556
v 15.177739 -1.452458 -3.944384
v 14.839359 -1.428702 -1.455687
v 12.731345 -1.231515 0.115317
v 14.220941 -1.380035 1.604897
v 16.252592 -1.577339 2.146430
v 18.281923 -1.770559 1.594813
v 19.765173 -1.907923 0.097851
v 17.147900 -3.955714 -2.242633
v 17.036890 -3.924395 -3.999753
v 16.543919 -3.806182 -5.373929
v 15.869558 -3.648488 -6.017295
v 15.265876 -3.510528 -5.604417
v 14.857272 -3.421611 -3.951060
v 14.526148 -3.353281 -1.462212
v 12.462700 -2.882246 0.109721
v 13.920918 -3.223560 1.598648
v 15.909710 -3.684225 2.139288
v 17.896181 -4.140806 1.586778
v 19.348055 -4.470963 0.089163
v 16.484701 -6.160189 -2.249459
v 16.377842 -6.115079 -4.006537
v 15.903822 -5.933871 -5.380517
v 15.255490 -5.689662 -6.023616
v 14.675186 -5.473986 -5.610497
v 14.282521 -5.332090 -3.956976
v 13.964405 -5.220515 -1.467994
v 11.980889 -4.483792 0.104762
v 13.382835 -5.012156 1.593109
v 15.294759 -5.728334 2.132958
v 17.204359 -6.440428 1.579657
v 18.599962 -6.957634 0.081462
v 15.539433 -8.259245 -2.255293
v 15.438487 -8.201007 -4.012334
v 14.991478 -7.959813 -5.386147
v 14.380244 -7.633227 -6.029017
v 13.833264 -7.343551 -5.615693
v 13.463317 -7.151211 -3.962031
v 13.163746 -6.998458 -1.472935
v 11.294154 -6.008752 0.100524
v 12.615895 -6.715220 1.588376
v 14.418255 -7.674693 2.127549
v 16.218292 -8.630082 1.573572
v 17.533689 -9.325393 0.074882
v 14.328275 -10.216959 -2.260034
v 14.234904 -10.146473 -4.017045
v 13.822509 -9.849333 -5.390723
v 13.258806 -9.445919 -6.033407
v 12.754524 -9.087224 -5.619915
v 12.413681 -8.847836 -3.966140
v 12.137871 -8.656680 -1.476951
v 10.414251 -7.431026 0.097080
v 11.633224 -8.303604 1.584530
v 13.295203 -9.489989 2.123153
v 14.954860 -10.672292 1.568626
v 16.167490 -11.533714 0.069534
v 12.871939 -11.999846 -2.263601
v 12.787679 -11.918205 -4.020590
v 12.416902 -11.570118 -5.394166
v 11.910351 -11.096734 -6.036710
v 11.457412 -10.675184 -5.623092
v 11.151567 -10.392953 -3.969231
v 10.904326 -10.166818 -1.479972
v 9.356227 -8.726289 0.094488
v 10.451632 -9.750145 1.581636
v 11.944809 -11.143178 2.119846
v 13.435667 -12.532128 1.564905
v 14.524728 -13.544827 0.065511
v 11.195356 -13.577386 -2.265933
v 11.121585 -13.485877 -4.022907
v 10.798717 -13.092707 -5.396417
v 10.357964 -12.557415 -6.038869
v 9.964131 -12.080251 -5.625169
v 9.698580 -11.760105 -3.971252
v 9.484227 -11.503026 -1.481947
v 8.138192 -9.872367 0.092794
v 9.091340 -11.030077 1.579743
v 10.390192 -12.605959 2.117683
v 11.686722 -14.177756 1.562473
v 12.633526 -15.324310 0.062880
v 9.327200 -14.922602 -2.266990
v 9.265115 -14.822676 -4.023958
v 8.995633 -14.391065 -5.397437
v 8.628196 -13.802978 -6.039847
v 8.300223 -13.278390 -5.626111
v 8.079566 -12.925919 -3.972168
v 7.901863 -12.642447 -1.482843
v 6.780982 -10.849664 0.092026
v 7.575617 -12.121513 1.578886
v 8.657937 -13.853314 2.116703
v 9.737935 -15.581032 1.561370
v 10.526226 -16.841726 0.061687
v 7.299451 -16.012461 -2.266755
v 7.250050 -15.905719 -4.023724
v 7.038516 -15.442963 -5.397210
v 6.750655 -14.812104 -6.039629
v 6.494169 -14.249093 -5.625901
v 6.322244 -13.870430 -3.971964
v 6.184319 -13.565580 -1.482643
v 5.307827 -11.641443 0.092197
v 5.930407 -13.005768 1.579077
v 6.777698 -14.863891 2.116921
v 7.622666 -16.717932 1.561615
v 8.238904 -18.071098 0.061953
v 5.146786 -16.828327 -2.265230
v 5.110852 -16.716480 -4.022209
v 4.960834 -16.230412 -5.395739
v 4.757454 -15.567533 -6.038218
v 4.576858 -14.975760 -5.624543
v 4.456665 -14.577491 -3.970643
v 4.360970 -14.256636 -1.481352
v 3.743921 -12.234170 0.093304
v 4.183849 -13.667721 1.580313
v 4.781631 -15.620408 2.118335
v 5.377091 -17.569014 1.563205
v 5.810676 -18.991405 0.063672
v 2.906048 -17.356237 -2.262443
v 2.884131 -17.241087 -4.019440
v 2.798146 -16.739931 -5.393049
v 2.682704 -16.056337 -6.035637
v 2.581103 -15.445952 -5.622061
v 2.514759 -15.034995 -3.968228
v 2.463022 -14.703786 -1.478992
v 2.116030 -12.617695 0.095329
v 2.365832 -14.096038 1.582575
v 2.703897 -16.109913 2.120919
v 3.039641 -18.119709 1.566113
v 3.283100 -19.586895 0.066816
v 0.615584 -17.587154 -2.258441
v 0.607996 -17.470560 -4.015463
v 0.587465 -16.962809 -5.389186
v 0.561910 -16.270153 -6.031932
v 0.541059 -15.651625 -5.618496
v 0.529759 -15.235118 -3.964760
v 0.522954 -14.899377 -1.475602
v 0.452013 -12.785458 0.098237
v 0.507470 -14.283395 1.585822
v 0.580055 -16.324036 2.124630
v 0.650318 -18.360594 1.570288
v 0.699432 -19.847374 0.071331
v -1.685432 -17.517136 -2.253292
v -1.678625 -17.400978 -4.010346
v -1.633401 -16.895227 -5.384216
v -1.568653 -16.205318 -6.027164
v -1.508384 -15.589262 -5.613911
v -1.464387 -15.174437 -3.960297
v -1.426051 -14.840069 -1.471241
v -1.219670 -12.734589 0.101977
v -1.359453 -14.226584 1.589999
v -1.553572 -16.259109 2.129405
v -1.750012 -18.287552 1.575659
v -1.896138 -19.768389 0.077139
v -3.957612 -17.147371 -2.247086
v -3.936591 -17.033529 -4.004178
v -3.826436 -16.538345 -5.378225
v -3.672517 -15.862948 -6.021417
v -3.532143 -15.259927 -5.608381
v -3.433541 -14.853989 -3.954918
v -3.350632 -14.526874 -1.465983
v -2.870404 -12.465958 0.106487
v -3.202981 -13.926579 1.595036
v -3.660460 -15.916246 2.135160
v -4.120262 -17.901831 1.582134
v -4.459181 -19.351297 0.084140
v -6.162096 -16.484196 -2.239926
v -6.127283 -16.374500 -3.997063
v -5.954131 -15.898269 -5.371315
v -5.713699 -15.248896 -6.014788
v -5.495608 -14.669254 -5.602005
v -5.344028 -14.279251 -3.948713
v -5.217872 -13.965148 -1.459919
v -4.471956 -11.984159 0.111688
v -4.991582 -13.388511 1.600845
v -5.704576 -15.301311 2.141799
v -6.419893 -17.210030 1.589602
v -6.945862 -18.603224 0.092216
v -8.261147 -15.538951 -2.231937
v -8.213203 -15.435171 -3.989123
v -7.980067 -14.985948 -5.363605
v -7.657258 -14.373672 -6.007390
v -7.365167 -13.827354 -5.594889
v -7.163142 -13.460069 -3.941789
v -6.995808 -13.164507 -1.453152
v -5.996912 -11.297442 0.117492
v -6.694643 -12.621591 1.607327
v -7.650930 -14.424831 2.149207
v -8.609540 -16.223989 1.597937
v -9.313613 -17.536980 0.101228
v -10.218866 -14.327810 -2.223254
v -10.158674 -14.231605 -3.980495
v -9.869595 -13.816993 -5.355225
v -9.469955 -13.252249 -5.999351
v -9.108844 -12.748628 -5.587156
v -8.859773 -12.410449 -3.934265
v -8.654035 -12.138647 -1.445798
v -7.419190 -10.417550 0.123800
v -8.283031 -11.638933 1.614371
v -9.466232 -13.301794 2.157258
v -10.651755 -14.960570 1.606994
v -11.521941 -16.170797 0.111022
v -12.001746 -12.871493 -2.214027
v -11.930404 -12.784400 -3.971326
v -11.590373 -12.411405 -5.346319
v -11.120765 -11.903812 -5.990808
v -10.696802 -11.451533 -5.578938
v -10.404884 -11.148352 -3.926269
v -10.164169 -10.905119 -1.437983
v -8.714450 -9.359540 0.130504
v -9.729568 -10.457355 1.621857
v -11.119418 -11.951419 2.165813
v -12.511588 -13.441400 1.616619
v -13.533051 -14.528059 0.121430
v -13.579280 -11.194929 -2.204414
v -13.498068 -11.118325 -3.961773
v -13.112957 -10.793240 -5.337040
v -12.581438 -10.351444 -5.981906
v -12.101862 -9.958271 -5.570375
v -11.772031 -9.695381 -3.917937
v -11.500370 -9.485038 -1.429840
v -9.860523 -8.141521 0.137488
v -11.009496 -9.097080 1.629657
v -12.582192 -10.396820 2.174727
v -14.157209 -11.692475 1.626647
v -15.312525 -12.636877 0.132275
v -14.924479 -9.326800 -2.194578
v -14.834851 -9.261882 -3.951998
v -14.411301 -8.990182 -5.327547
v -13.826990 -8.621699 -5.972799
v -13.299987 -8.294387 -5.561615
v -12.937830 -8.076391 -3.909413
v -12.639779 -7.902695 -1.421509
v -10.837809 -6.784329 0.144634
v -12.100920 -7.581378 1.637637
v -13.829534 -8.664588 2.183848
v -15.560470 -9.743714 1.636908
v -16.829926 -10.529608 0.143369
v -16.014334 -7.299060 -2.184688
v -15.917888 -7.246827 -3.942171
v -15.463191 -7.033073 -5.318002
v -14.836109 -6.744169 -5.963642
v -14.270685 -6.488343 -5.552806
v -13.882338 -6.319077 -3.900842
v -13.562905 -6.185160 -1.413132
v -11.629583 -5.311181 0.151818
v -12.985168 -5.936177 1.645661
v -14.840105 -6.784359 2.193018
v -16.697363 -7.628457 1.647224
v -18.059292 -8.242295 0.154525
v -16.830187 -5.146412 -2.174914
v -16.728636 -5.107646 -3.932458
v -16.250626 -4.955407 -5.308568
v -15.591525 -4.750983 -5.954592
v -14.997338 -4.571046 -5.544101
v -14.589385 -4.453513 -3.892372
v -14.253949 -4.361826 -1.404853
v -12.222301 -3.747288 0.158919
v -13.647110 -4.189632 1.653592
v -15.596608 -4.788307 2.202081
v -17.548429 -5.382898 1.657420
v -18.979584 -5.814085 0.165550
v -17.358076 -2.905697 -2.165422
v -17.253225 -2.880948 -3.923025
v -16.760130 -2.792741 -5.299407
v -16.080313 -2.676254 -5.945803
v -15.467514 -2.575311 -5.535646
v -15.046876 -2.511627 -3.884146
v -14.701085 -2.463897 -1.396814
v -12.605813 -2.119412 0.165815
v -14.075414 -2.371633 1.661293
v -16.086100 -2.710594 2.210883
v -18.099106 -3.045471 1.667322
v -19.575050 -3.286535 0.176257
v -17.588982 -0.615239 -2.156375
v -17.482687 -0.604818 -3.914035
v -16.982990 -0.582066 -5.290675
v -16.294111 -0.555467 -5.937427
v -15.673175 -0.535273 -5.527589
v -15.246984 -0.526632 -3.876306
v -14.896664 -0.523835 -1.389151
v -12.773563 -0.455400 0.172387
v -14.262757 -0.513276 1.668633
v -16.300205 -0.586757 2.219271
v -18.339975 -0.656155 1.676759
v -19.835512 -0.702874 0.186462
v -17.518942 1.685767 -2.147929
v -17.413084 1.681793 -3.905641
v -16.915392 1.638791 -5.282522
v -16.229261 1.575088 -5.929605
v -15.610792 1.514161 -5.520065
v -15.186288 1.467504 -3.868985
v -14.837340 1.425162 -1.381996
v -12.722680 1.216276 0.178524
v -14.205932 1.353640 1.675486
v -16.235262 1.546861 2.227104
v -18.266914 1.744165 1.685570
v -19.756508 1.892685 0.195990
v -17.149164 3.957940 -2.140226
v -17.045618 3.939753 -3.897987
v -16.558491 3.831818 -5.275088
v -15.886872 3.678945 -5.922473
v -15.281442 3.537914 -5.513205
v -14.865823 3.436652 -3.862310
v -14.524129 3.349737 -1.375472
v -12.454036 2.867005 0.184120
v -13.905910 3.197162 1.681736
v -15.892381 3.653743 2.234246
v -17.881174 4.114408 1.693605
v -19.339394 4.455721 0.204679
v -16.485968 6.162412 -2.133399
v -16.386572 6.130434 -3.891203
v -15.918398 5.959502 -5.268499
v -15.272805 5.720115 -5.916152
v -14.690754 5.501368 -5.507125
v -14.291073 5.347128 -3.856394
v -13.962390 5.216967 -1.369690
v -11.972224 4.468548 0.189079
v -13.367828 4.985754 1.687274
v -15.277431 5.697848 2.240576
v -17.189354 6.414026 1.700727
v -18.591301 6.942389 0.212379
v -15.540702 8.261468 -2.127566
v -15.447220 8.216359 -3.885406
v -15.006056 7.985445 -5.262869
v -14.397560 7.663680 -5.910751
v -13.848834 7.370932 -5.501929
v -13.471869 7.166248 -3.851338
v -13.161730 6.994909 -1.364749
v -11.285491 5.993509 0.193317
v -12.600889 6.688818 1.692007
v -14.400927 7.644208 2.245985
v -16.203287 8.603682 1.706812
v -17.525030 9.310147 0.218960
v -14.329537 10.219189 -2.122825
v -14.243631 10.161831 -3.880695
v -13.837081 9.874972 -5.258293
v -13.276119 9.476379 -5.906362
v -12.770088 9.114611 -5.497706
v -12.422230 8.862880 -3.847229
v -12.135851 8.653135 -1.360733
v -10.405584 7.415788 0.196762
v -11.618215 8.277210 1.695854
v -13.277871 9.459513 2.250381
v -14.939848 10.645898 1.711757
v -16.158825 11.518476 0.224307
v -12.873208 12.002068 -2.119258
v -12.796412 11.933558 -3.877150
v -12.431479 11.595749 -5.254850
v -11.927669 11.127187 -5.903059
v -11.472982 10.702566 -5.494530
v -11.160122 10.407990 -3.844138
v -10.902312 10.163270 -1.357711
v -9.347564 8.711045 0.199353
v -10.436625 9.723744 1.698748
v -11.927484 11.112695 2.253688
v -13.420663 12.505729 1.715478
v -14.516068 13.529583 0.228331
v -11.196626 13.579609 -2.116926
v -11.130320 13.501229 -3.874832
v -10.813297 13.118340 -5.252600
v -10.375284 12.587867 -5.900899
v -9.979705 12.107633 -5.492453
v -9.707136 11.775144 -3.842117
v -9.482216 11.499475 -1.355736
v -8.129532 9.857125 0.201047
v -9.076336 11.003678 1.700640
v -10.372866 12.575477 2.255851
v -11.671718 14.151358 1.717911
v -12.624866 15.309066 0.230962
v -9.328465 14.924827 -2.115869
v -9.273844 14.838032 -3.873782
v -9.010207 14.416702 -5.251579
v -8.645511 13.833436 -5.899920
v -8.315792 13.305777 -5.491511
v -8.088118 12.940960 -3.841201
v -7.899847 12.638902 -1.354841
v -6.772316 10.834424 0.201816
v -7.560608 12.095119 1.701498
v -8.640605 13.822836 2.256831
v -9.722924 15.554637 1.719014
v -10.517560 16.826488 0.232154
v -7.300715 16.014688 -2.116104
v -7.258780 15.921075 -3.874016
v -7.053090 15.468600 -5.251807
v -6.767972 14.842564 -5.900138
v -6.509740 14.276481 -5.491721
v -6.330796 13.885472 -3.841405
v -6.182304 13.562035 -1.355040
v -5.299160 11.626205 0.201644
v -5.915398 12.979373 1.701307
v -6.760366 14.833412 2.256613
v -7.607656 16.691536 1.718768
v -8.230236 18.055861 0.231889
v -5.148058 16.830553 -2.117629
v -5.119590 16.731838 -3.875530
v -4.975416 16.256048 -5.253278
v -4.774778 15.597991 -5.901550
v -4.592437 15.003147 -5.493078
v -4.465226 14.592531 -3.842726
v -4.358963 14.253089 -1.356331
v -3.735260 12.218929 0.200537
v -4.168846 13.641323 1.700070
v -4.764307 15.589927 2.255199
v -5.362089 17.542614 1.717178
v -5.802018 18.976164 0.230169
v -2.907330 17.358465 -2.120415
v -2.892878 17.256447 -3.878300
v -2.812737 16.765568 -5.255968
v -2.700035 16.086796 -5.904130
v -2.596689 15.473339 -5.495561
v -2.523327 15.050036 -3.845141
v -2.461022 14.700240 -1.358691
v -2.107376 12.602454 0.198512
v -2.350836 14.069641 1.697809
v -2.686581 16.079432 2.252615
v -3.024647 18.093307 1.714271
v -3.274451 19.571651 0.227025
v -0.616849 17.589386 -2.124418
v -0.616727 17.485922 -3.882277
v -0.602039 16.988447 -5.259830
v -0.579227 16.300611 -5.907836
v -0.556630 15.679014 -5.499125
v -0.538313 15.250162 -3.848610
v -0.520940 14.895833 -1.362082
v -0.443347 12.770218 0.195605
v -0.492461 14.256999 1.694562
v -0.562723 16.293556 2.248904
v -0.635308 18.334196 1.710096
v -0.690765 19.832134 0.222511
v 1.684159 17.519369 -2.129566
v 1.669886 17.416342 -3.887394
v 1.618819 16.920866 -5.264800
v 1.551328 16.235781 -5.912603
v 1.492805 15.616652 -5.503712
v 1.455825 15.189482 -3.853072
v 1.428058 14.836528 -1.366442
v 1.228330 12.719349 0.191864
v 1.374456 14.200189 1.690384
v 1.570895 16.228630 2.244130
v 1.765013 18.261154 1.704725
v 1.904796 19.753151 0.216703
v 3.956339 17.149607 -2.135774
v 3.927853 17.048895 -3.893562
v 3.811853 16.563986 -5.270791
v 3.655192 15.893409 -5.918351
v 3.516565 15.287316 -5.509240
v 3.424980 14.869036 -3.858451
v 3.352638 14.523333 -1.371700
v 2.879064 12.450719 0.187355
v 3.217983 13.900184 1.685348
v 3.677784 15.885768 2.238374
v 4.135262 17.875435 1.698250
v 4.467839 19.336058 0.209701
v 6.160831 16.486427 -2.142933
v 6.118553 16.389862 -3.900677
v 5.939558 15.923904 -5.277701
v 5.696382 15.279355 -5.924980
v 5.480036 14.696642 -5.515616
v 5.335474 14.294297 -3.864656
v 5.219886 13.961606 -1.377764
v 4.480622 11.968920 0.182153
v 5.006591 13.362114 1.679539
v 5.721909 15.270831 2.231735
v 6.434903 17.183630 1.690781
v 6.954529 18.587982 0.201625
v 8.259882 15.541182 -2.150922
v 8.204474 15.450531 -3.908617
v 7.965492 15.011585 -5.285413
v 7.639941 14.404134 -5.932378
v 7.349595 13.854744 -5.522733
v 7.154588 13.475116 -3.871580
v 6.997822 13.160966 -1.384531
v 6.005578 11.282203 0.176349
v 6.709651 12.595194 1.673057
v 7.668261 14.394351 2.224327
v 8.624551 16.197590 1.682447
v 9.322281 17.521738 0.192613
v 10.217596 14.330044 -2.159605
v 10.149940 14.246971 -3.917244
v 9.855014 13.842634 -5.293793
v 9.452632 13.282712 -5.940417
v 9.093269 12.776022 -5.530466
v 8.851214 12.425498 -3.879104
v 8.656046 12.135111 -1.391885
v 7.427851 10.402313 0.170041
v 8.298037 11.612539 1.666013
v 9.483559 13.271317 2.216277
v 10.666760 14.934178 1.673390
v 11.530601 16.155561 0.182819
v 12.000472 12.873735 -2.168832
v 11.921663 12.799772 -3.926414
v 11.575788 12.437053 -5.302698
v 11.103439 11.934284 -5.948960
v 10.681220 11.478932 -5.538684
v 10.396321 11.163408 -3.887101
v 10.166176 10.901589 -1.399701
v 8.723107 9.344309 0.163338
v 9.744569 10.430968 1.658526
v 11.136738 11.920949 2.207721
v 12.526587 13.415014 1.663765
v 13.541704 14.512830 0.172411
v 13.578018 11.197161 -2.178445
v 13.489341 11.133686 -3.935967
v 13.098384 10.818878 -5.311976
v 12.564123 10.381903 -5.957862
v 12.086292 9.985661 -5.547247
v 11.763481 9.710427 -3.895432
v 11.502387 9.481496 -1.407844
v 9.869190 8.126280 0.156353
v 11.024506 9.070683 1.650726
v 12.599524 10.366338 2.198806
v 14.172221 11.666078 1.653736
v 15.321192 12.621635 0.161567
v 14.923217 9.329029 -2.188281
v 14.826125 9.277242 -3.945741
v 14.396727 9.015820 -5.321470
v 13.809675 8.652161 -5.966969
v 13.284417 8.321776 -5.556007
v 12.929280 8.091438 -3.903956
v 12.641798 7.899155 -1.416175
v 10.846475 6.769088 0.149208
v 12.115930 7.554981 1.642746
v 13.846865 8.634108 2.189686
v 15.575480 9.717317 1.643476
v 16.838591 10.514365 0.150472
v 16.013067 7.301298 -2.198171
v 15.909158 7.262195 -3.955569
v 15.448615 7.058718 -5.331015
v 14.818792 6.774636 -5.976126
v 14.255116 6.515738 -5.564816
v 13.873784 6.334129 -3.912527
v 13.564922 6.181627 -1.424551
v 11.638247 5.295946 0.142023
v 13.000175 5.909785 1.634722
v 14.857433 6.753883 2.180516
v 16.712368 7.602066 1.633159
v 18.067953 8.227062 0.139316
v 16.828924 5.148641 -2.207945
v 16.719910 5.123005 -3.965282
v 16.236055 4.981045 -5.340449
v 15.574212 4.781442 -5.985177
v 14.981773 4.598435 -5.573521
v 14.580835 4.468559 -3.920998
v 14.255968 4.358284 -1.432830
v 12.230966 3.732045 0.134922
v 13.662119 4.163233 1.626792
v 15.613938 4.757824 2.171453
v 17.563437 5.356499 1.622963
v 18.988247 5.798843 0.128291
v 17.356815 2.907924 -2.217437
v 17.244501 2.896305 -3.974715
v 16.745558 2.818377 -5.349610
v 16.063002 2.706712 -5.993965
v 15.451950 2.602698 -5.581975
v 15.038327 2.526671 -3.929224
v 14.703104 2.460353 -1.440870
v 12.614478 2.104170 0.128026
v 14.090423 2.345233 1.619091
v 16.103430 2.680110 2.162652
v 18.114115 3.019071 1.613062
v 19.583715 3.271291 0.117584
vt 0.500000 0.500000
vt 0.520833 0.500000
vt 0.520833 0.583333
vt 0.500000 0.583333
vt 0.520833 0.666667
vt 0.500000 0.666667
vt 0.520833 0.750000
vt 0.500000 0.750000
vt 0.520833 0.833333
vt 0.500000 0.833333
vt 0.520833 0.916667
vt 0.500000 0.916667
vt 0.520833 1.000000
vt 0.500000 1.000000
vt 0.500000 0.000000
vt 0.520833 0.000000
vt 0.520833 0.083333
vt 0.500000 0.083333
vt 0.520833 0.166667
vt 0.500000 0.166667
vt 0.520833 0.250000
vt 0.500000 0.250000
vt 0.520833 0.333333
vt 0.500000 0.333333
vt 0.520833 0.416667
vt 0.500000 0.416667
vt 0.541667 0.500000
vt 0.541667 0.583333
vt 0.541667 0.666667
vt 0.541667 0.750000
vt 0.541667 0.833333
vt 0.541667 0.916667
vt 0.541667 1.000000
vt 0.541667 0.000000
vt 0.541667 0.083333
vt 0.541667 0.166667
vt 0.541667 0.250000
vt 0.541667 0.333333
vt 0.541667 0.416667
vt 0.562500 0.500000
vt 0.562500 0.583333
vt 0.562500 0.666667
vt 0.562500 0.750000
vt 0.562500 0.833333
vt 0.562500 0.916667
vt 0.562500 1.000000
vt 0.562500 0.000000
vt 0.562500 0.083333
vt 0.562500 0.166667
vt 0.562500 0.250000
vt 0.562500 0.333333
vt 0.562500 0.416667
vt 0.583333 0.500000
vt 0.583333 0.583333
vt 0.583333 0.666667
vt 0.583333 0.750000
vt 0.583333 0.833333
vt 0.583333 0.916667
vt 0.583333 1.000000
vt 0.583333 0.000000
vt 0.583333 0.083333
vt 0.583333 0.166667
vt 0.583333 0.250000
vt 0.583333 0.333333
vt 0.583333 0.416667
vt 0.604167 0.500000
vt 0.604167 0.583333
vt 0.604167 0.666667
vt 0.604167 0.750000
vt 0.604167 0.833333
vt 0.604167 0.916667
vt 0.604167 1.000000
vt 0.604167 0.000000
vt 0.604167 0.083333
vt 0.604167 0.166667
vt 0.604167 0.250000
vt 0.604167 0.333333
vt 0.604167 0.416667
vt 0.625000 0.500000
vt 0.625000 0.583333
vt 0.625000 0.666667
vt 0.625000 0.750000
vt 0.625000 0.833333
vt 0.625000 0.916667
vt 0.625000 1.000000
vt 0.625000 0.000000
vt 0.625000 0.083333
vt 0.625000 0.166667
vt 0.625000 0.250000
vt 0.625000 0.333333
vt 0.625000 0.416667
vt 0.645833 0.500000
vt 0.645833 0.583333
vt 0.645833 0.666667
vt 0.645833 0.750000
vt 0.645833 0.833333
vt 0.645833 0.916667
vt 0.645833 1.000000
vt 0.645833 0.000000
vt 0.645833 0.083333
vt 0.645833 0.166667
vt 0.645833 0.250000
vt 0.645833 0.333333
vt 0.645833 0.416667
vt 0.666667 0.500000
vt 0.666667 0.583333
vt 0.666667 0.666667
vt 0.666667 0.750000
vt 0.666667 0.833333
vt 0.666667 0.916667
vt 0.666667 1.000000
vt 0.666667 0.000000
vt 0.666667 0.083333
vt 0.666667 0.166667
vt 0.666667 0.250000
vt 0.666667 0.333333
vt 0.666667 0.416667
vt 0.687500 0.500000
vt 0.687500 0.583333
vt 0.687500 0.666667
vt 0.687500 0.750000
vt 0.687500 0.833333
vt 0.687500 0.916667
vt 0.687500 1.000000
vt 0.687500 0.000000
vt 0.687500 0.083333
vt 0.687500 0.166667
vt 0.687500 0.250000
vt 0.687500 0.333333
vt 0.687500 0.416667
vt 0.708333 0.500000
vt 0.708333 0.583333
vt 0.708333 0.666667
vt 0.708333 0.750000
vt 0.708333 0.833333
vt 0.708333 0.916667
vt 0.708333 1.000000
vt 0.708333 0.000000
vt 0.708333 0.083333
vt 0.708333 0.166667
vt 0.708333 0.250000
vt 0.708333 0.333333
vt 0.708333 0.416667
vt 0.729167 0.500000
vt 0.729167 0.583333
vt 0.729167 0.666667
vt 0.729167 0.750000
vt 0.729167 0.833333
vt 0.729167 0.916667
vt 0.729167 1.000000
vt 0.729167 0.000000
vt 0.729167 0.083333
vt 0.729167 0.166667
vt 0.729167 0.250000
vt 0.729167 0.333333
vt 0.729167 0.416667
vt 0.750000 0.500000
vt 0.750000 0.583333
vt 0.750000 0.666667
vt 0.750000 0.750000
vt 0.750000 0.833333
vt 0.750000 0.916667
vt 0.750000 1.000000
vt 0.750000 0.000000
vt 0.750000 0.083333
vt 0.750000 0.166667
vt 0.750000 0.250000
vt 0.750000 0.333333
vt 0.750000 0.416667
vt 0.770833 0.500000
vt 0.770833 0.583333
vt 0.770833 0.666667
vt 0.770833 0.750000
vt 0.770833 0.833333
vt 0.770833 0.916667
vt 0.770833 1.000000
vt 0.770833 0.000000
vt 0.770833 0.083333
vt 0.770833 0.166667
vt 0.770833 0.250000
vt 0.770833 0.333333
vt 0.770833 0.416667
vt 0.791667 0.500000
vt 0.791667 0.583333
vt 0.791667 0.666667
vt 0.791667 0.750000
vt 0.791667 0.833333
vt 0.791667 0.916667
vt 0.791667 1.000000
vt 0.791667 0.000000
vt 0.791667 0.083333
vt 0.791667 0.166667
vt 0.791667 0.250000
vt 0.791667 0.333333
vt 0.791667 0.416667
vt 0.812500 0.500000
vt 0.812500 0.583333
vt 0.812500 0.666667
vt 0.812500 0.750000
vt 0.812500 0.833333
vt 0.812500 0.916667
vt 0.812500 1.000000
vt 0.812500 0.000000
vt 0.812500 0.083333
vt 0.812500 0.166667
vt 0.812500 0.250000
vt 0.812500 0.333333
vt 0.812500 0.416667
vt 0.833333 0.500000
vt 0.833333 0.583333
vt 0.833333 0.666667
vt 0.833333 0.750000
vt 0.833333 0.833333
vt 0.833333 0.916667
vt 0.833333 1.000000
vt 0.833333 0.000000
vt 0.833333 0.083333
vt 0.833333 0.166667
vt 0.833333 0.250000
vt 0.833333 0.333333
vt 0.833333 0.416667
vt 0.854167 0.500000
vt 0.854167 0.583333
vt 0.854167 0.666667
vt 0.854167 0.750000
vt 0.854167 0.833333
vt 0.854167 0.916667
vt 0.854167 1.000000
vt 0.854167 0.000000
vt 0.854167 0.083333
vt 0.854167 0.166667
vt 0.854167 0.250000
vt 0.854167 0.333333
vt 0.854167 0.416667
vt 0.875000 0.500000
vt 0.875000 0.583333
vt 0.875000 0.666667
vt 0.875000 0.750000
vt 0.875000 0.833333
vt 0.875000 0.916667
vt 0.875000 1.000000
vt 0.875000 0.000000
vt 0.875000 0.083333
vt 0.875000 0.166667
vt 0.875000 0.250000
vt 0.875000 0.333333
vt 0.875000 0.416667
vt 0.895833 0.500000
vt 0.895833 0.583333
vt 0.895833 0.666667
vt 0.895833 0.750000
vt 0.895833 0.833333
vt 0.895833 0.916667
vt 0.895833 1.000000
vt 0.895833 0.000000
vt 0.895833 0.083333
vt 0.895833 0.166667
vt 0.895833 0.250000
vt 0.895833 0.333333
vt 0.895833 0.416667
vt 0.916667 0.500000
vt 0.916667 0.583333
vt 0.916667 0.666667
vt 0.916667 0.750000
vt 0.916667 0.833333
vt 0.916667 0.916667
vt 0.916667 1.000000
vt 0.916667 0.000000
vt 0.916667 0.083333
vt 0.916667 0.166667
vt 0.916667 0.250000
vt 0.916667 0.333333
vt 0.916667 0.416667
vt 0.937500 0.500000
vt 0.937500 0.583333
vt 0.937500 0.666667
vt 0.937500 0.750000
vt 0.937500 0.833333
vt 0.937500 0.916667
vt 0.937500 1.000000
vt 0.937500 0.000000
vt 0.937500 0.083333
vt 0.937500 0.166667
vt 0.937500 0.250000
vt 0.937500 0.333333
vt 0.937500 0.416667
vt 0.958333 0.500000
vt 0.958333 0.583333
vt 0.958333 0.666667
vt 0.958333 0.750000
vt 0.958333 0.833333
vt 0.958333 0.916667
vt 0.958333 1.000000
vt 0.958333 0.000000
vt 0.958333 0.083333
vt 0.958333 0.166667
vt 0.958333 0.250000
vt 0.958333 0.333333
vt 0.958333 0.416667
vt 0.979167 0.500000
vt 0.979167 0.583333
vt 0.979167 0.666667
vt 0.979167 0.750000
vt 0.979167 0.833333
vt 0.979167 0.916667
vt 0.979167 1.000000
vt 0.979167 0.000000
vt 0.979167 0.083333
vt 0.979167 0.166667
vt 0.979167 0.250000
vt 0.979167 0.333333
vt 0.979167 0.416667
vt 1.000000 0.500000
vt 1.000000 0.583333
vt 1.000000 0.666667
vt 1.000000 0.750000
vt 1.000000 0.833333
vt 1.000000 0.916667
vt 1.000000 1.000000
vt 1.000000 0.000000
vt 1.000000 0.083333
vt 1.000000 0.166667
vt 1.000000 0.250000
vt 1.000000 0.333333
vt 1.000000 0.416667
vt 0.000000 0.500000
vt 0.020833 0.500000
vt 0.020833 0.583333
vt 0.000000 0.583333
vt 0.020833 0.666667
vt 0.000000 0.666667
vt 0.020833 0.750000
vt 0.000000 0.750000
vt 0.020833 0.833333
vt 0.000000 0.833333
vt 0.020833 0.916667
vt 0.000000 0.916667
vt 0.020833 1.000000
vt 0.000000 1.000000
vt 0.000000 0.000000
vt 0.020833 0.000000
vt 0.020833 0.083333
vt 0.000000 0.083333
vt 0.020833 0.166667
vt 0.000000 0.166667
vt 0.020833 0.250000
vt 0.000000 0.250000
vt 0.020833 0.333333
vt 0.000000 0.333333
vt 0.020833 0.416667
vt 0.000000 0.416667
vt 0.041667 0.500000
vt 0.041667 0.583333
vt 0.041667 0.666667
vt 0.041667 0.750000
vt 0.041667 0.833333
vt 0.041667 0.916667
vt 0.041667 1.000000
vt 0.041667 0.000000
vt 0.041667 0.083333
vt 0.041667 0.166667
vt 0.041667 0.250000
vt 0.041667 0.333333
vt 0.041667 0.416667
vt 0.062500 0.500000
vt 0.062500 0.583333
vt 0.062500 0.666667
vt 0.062500 0.750000
vt 0.062500 0.833333
vt 0.062500 0.916667
vt 0.062500 1.000000
vt 0.062500 0.000000
vt 0.062500 0.083333
vt 0.062500 0.166667
vt 0.062500 0.250000
vt 0.062500 0.333333
vt 0.062500 0.416667
vt 0.083333 0.500000
vt 0.083333 0.583333
vt 0.083333 0.666667
vt 0.083333 0.750000
vt 0.083333 0.833333
vt 0.083333 0.916667
vt 0.083333 1.000000
vt 0.083333 0.000000
vt 0.083333 0.083333
vt 0.083333 0.166667
vt 0.083333 0.250000
vt 0.083333 0.333333
vt 0.083333 0.416667
vt 0.104167 0.500000
vt 0.104167 0.583333
vt 0.104167 0.666667
vt 0.104167 0.750000
vt 0.104167 0.833333
vt 0.104167 0.916667
vt 0.104167 1.000000
vt 0.104167 0.000000
vt 0.104167 0.083333
vt 0.104167 0.166667
vt 0.104167 0.250000
vt 0.104167 0.333333
vt 0.104167 0.416667
vt 0.125000 0.500000
vt 0.125000 0.583333
vt 0.125000 0.666667
vt 0.125000 0.750000
vt 0.125000 0.833333
vt 0.125000 0.916667
vt 0.125000 1.000000
vt 0.125000 0.000000
vt 0.125000 0.083333
vt 0.125000 0.166667
vt 0.125000 0.250000
vt 0.125000 0.333333
vt 0.125000 0.416667
vt 0.145833 0.500000
vt 0.145833 0.583333
vt 0.145833 0.666667
vt 0.145833 0.750000
vt 0.145833 0.833333
vt 0.145833 0.916667
vt 0.145833 1.000000
vt 0.145833 0.000000
vt 0.145833 0.083333
vt 0.145833 0.166667
vt 0.145833 0.250000
vt 0.145833 0.333333
vt 0.145833 0.416667
vt 0.166667 0.500000
vt 0.166667 0.583333
vt 0.166667 0.666667
vt 0.166667 0.750000
vt 0.166667 0.833333
vt 0.166667 0.916667
vt 0.166667 1.000000
vt 0.166667 0.000000
vt 0.166667 0.083333
vt 0.166667 0.166667
vt 0.166667 0.250000
vt 0.166667 0.333333
vt 0.166667 0.416667
vt 0.187500 0.500000
vt 0.187500 0.583333
vt 0.187500 0.666667
vt 0.187500 0.750000
vt 0.187500 0.833333
vt 0.187500 0.916667
vt 0.187500 1.000000
vt 0.187500 0.000000
vt 0.187500 0.083333
vt 0.187500 0.166667
vt 0.187500 0.250000
vt 0.187500 0.333333
vt 0.187500 0.416667
vt 0.208333 0.500000
vt 0.208333 0.583333
vt 0.208333 0.666667
vt 0.208333 0.750000
vt 0.208333 0.833333
vt 0.208333 0.916667
vt 0.208333 1.000000
vt 0.208333 0.000000
vt 0.208333 0.083333
vt 0.208333 0.166667
vt 0.208333 0.250000
vt 0.208333 0.333333
vt 0.208333 0.416667
vt 0.229167 0.500000
vt 0.229167 0.583333
vt 0.229167 0.666667
vt 0.229167 0.750000
vt 0.229167 0.833333
vt 0.229167 0.916667
vt 0.229167 1.000000
vt 0.229167 0.000000
vt 0.229167 0.083333
vt 0.229167 0.166667
vt 0.229167 0.250000
vt 0.229167 0.333333
vt 0.229167 0.416667
vt 0.250000 0.500000
vt 0.250000 0.583333
vt 0.250000 0.666667
vt 0.250000 0.750000
vt 0.250000 0.833333
vt 0.250000 0.916667
vt 0.250000 1.000000
vt 0.250000 0.000000
vt 0.250000 0.083333
vt 0.250000 0.166667
vt 0.250000 0.250000
vt 0.250000 0.333333
vt 0.250000 0.416667
vt 0.270833 0.500000
vt 0.270833 0.583333
vt 0.270833 0.666667
vt 0.270833 0.750000
vt 0.270833 0.833333
vt 0.270833 0.916667
vt 0.270833 1.000000
vt 0.270833 0.000000
vt 0.270833 0.083333
vt 0.270833 0.166667
vt 0.270833 0.250000
vt 0.270833 0.333333
vt 0.270833 0.416667
vt 0.291667 0.500000
vt 0.291667 0.583333
vt 0.291667 0.666667
vt 0.291667 0.750000
vt 0.291667 0.833333
vt 0.291667 0.916667
vt 0.291667 1.000000
vt 0.291667 0.000000
vt 0.291667 0.083333
vt 0.291667 0.166667
vt 0.291667 0.250000
vt 0.291667 0.333333
vt 0.291667 0.416667
vt 0.312500 0.500000
vt 0.312500 0.583333
vt 0.312500 0.666667
vt 0.312500 0.750000
vt 0.312500 0.833333
vt 0.312500 0.916667
vt 0.312500 1.000000
vt 0.312500 0.000000
vt 0.312500 0.083333
vt 0.312500 0.166667
vt 0.312500 0.250000
vt 0.312500 0.333333
vt 0.312500 0.416667
vt 0.333333 0.500000
vt 0.333333 0.583333
vt 0.333333 0.666667
vt 0.333333 0.750000
vt 0.333333 0.833333
vt 0.333333 0.916667
vt 0.333333 1.000000
vt 0.333333 0.000000
vt 0.333333 0.083333
vt 0.333333 0.166667
vt 0.333333 0.250000
vt 0.333333 0.333333
vt 0.333333 0.416667
vt 0.354167 0.500000
vt 0.354167 0.583333
vt 0.354167 0.666667
vt 0.354167 0.750000
vt 0.354167 0.833333
vt 0.354167 0.916667
vt 0.354167 1.000000
vt 0.354167 0.000000
vt 0.354167 0.083333
vt 0.354167 0.166667
vt 0.354167 0.250000
vt 0.354167 0.333333
vt 0.354167 0.416667
vt 0.375000 0.500000
vt 0.375000 0.583333
vt 0.375000 0.666667
vt 0.375000 0.750000
vt 0.375000 0.833333
vt 0.375000 0.916667
vt 0.375000 1.000000
vt 0.375000 0.000000
vt 0.375000 0.083333
vt 0.375000 0.166667
vt 0.375000 0.250000
vt 0.375000 0.333333
vt 0.375000 0.416667
vt 0.395833 0.500000
vt 0.395833 0.583333
vt 0.395833 0.666667
vt 0.395833 0.750000
vt 0.395833 0.833333
vt 0.395833 0.916667
vt 0.395833 1.000000
vt 0.395833 0.000000
vt 0.395833 0.083333
vt 0.395833 0.166667
vt 0.395833 0.250000
vt 0.395833 0.333333
vt 0.395833 0.416667
vt 0.416667 0.500000
vt 0.416667 0.583333
vt 0.416667 0.666667
vt 0.416667 0.750000
vt 0.416667 0.833333
vt 0.416667 0.916667
vt 0.416667 1.000000
vt 0.416667 0.000000
vt 0.416667 0.083333
vt 0.416667 0.166667
vt 0.416667 0.250000
vt 0.416667 0.333333
vt 0.416667 0.416667
vt 0.437500 0.500000
vt 0.437500 0.583333
vt 0.437500 0.666667
vt 0.437500 0.750000
vt 0.437500 0.833333
vt 0.437500 0.916667
vt 0.437500 1.000000
vt 0.437500 0.000000
vt 0.437500 0.083333
vt 0.437500 0.166667
vt 0.437500 0.250000
vt 0.437500 0.333333
vt 0.437500 0.416667
vt 0.458333 0.500000
vt 0.458333 0.583333
vt 0.458333 0.666667
vt 0.458333 0.750000
vt 0.458333 0.833333
vt 0.458333 0.916667
vt 0.458333 1.000000
vt 0.458333 0.000000
vt 0.458333 0.083333
vt 0.458333 0.166667
vt 0.458333 0.250000
vt 0.458333 0.333333
vt 0.458333 0.416667
vt 0.479167 0.500000
vt 0.479167 0.583333
vt 0.479167 0.666667
vt 0.479167 0.750000
vt 0.479167 0.833333
vt 0.479167 0.916667
vt 0.479167 1.000000
vt 0.479167 0.000000
vt 0.479167 0.083333
vt 0.479167 0.166667
vt 0.479167 0.250000
vt 0.479167 0.333333
vt 0.479167 0.416667
vn 0.9975 -0.0301 -0.0646
vn 0.9383 -0.0273 -0.3448
vn 0.6817 -0.0181 -0.7314
vn -0.5547 0.0199 -0.8318
vn -0.9690 0.0304 -0.2453
vn -0.9904 0.0306 -0.1350
vn -0.5962 0.0211 -0.8026
vn -0.7060 0.0189 0.7079
vn -0.2572 0.0043 0.9664
vn 0.2613 -0.0115 0.9652
vn 0.7090 -0.0242 0.7048
vn 0.7191 -0.0193 -0.6947
vn 0.9850 -0.1601 -0.0651
vn 0.9265 -0.1496 -0.3452
vn 0.6731 -0.1071 -0.7318
vn -0.5477 0.0920 -0.8316
vn -0.9568 0.1565 -0.2449
vn -0.9780 0.1596 -0.1345
vn -0.5887 0.0985 -0.8023
vn -0.6972 0.1111 0.7083
vn -0.2539 0.0380 0.9665
vn 0.2580 -0.0453 0.9651
vn 0.7002 -0.1163 0.7044
vn 0.7101 -0.1132 -0.6950
vn 0.9556 -0.2873 -0.0655
vn 0.8989 -0.2694 -0.3456
vn 0.6530 -0.1942 -0.7320
vn -0.5315 0.1625 -0.8314
vn -0.9283 0.2800 -0.2445
vn -0.9488 0.2859 -0.1341
vn -0.5712 0.1743 -0.8021
vn -0.6764 0.2013 0.7085
vn -0.2463 0.0711 0.9666
vn 0.2504 -0.0783 0.9650
vn 0.6794 -0.2066 0.7041
vn 0.6889 -0.2051 -0.6953
vn 0.9099 -0.4096 -0.0659
vn 0.8559 -0.3845 -0.3460
vn 0.6217 -0.2779 -0.7323
vn -0.5061 0.2302 -0.8312
vn -0.8840 0.3988 -0.2441
vn -0.9035 0.4072 -0.1337
vn -0.5440 0.2472 -0.8019
vn -0.6439 0.2880 0.7088
vn -0.2344 0.1029 0.9667
vn 0.2385 -0.1101 0.9649
vn 0.6469 -0.2933 0.7039
vn 0.6558 -0.2934 -0.6955
vn 0.8486 -0.5248 -0.0662
vn 0.7982 -0.4930 -0.3463
vn 0.5797 -0.3569 -0.7325
vn -0.4722 0.2941 -0.8310
vn -0.8245 0.5107 -0.2438
vn -0.8427 0.5216 -0.1334
vn -0.5075 0.3159 -0.8017
vn -0.6005 0.3698 0.7090
vn -0.2185 0.1328 0.9668
vn 0.2226 -0.1400 0.9648
vn 0.6035 -0.3751 0.7037
vn 0.6116 -0.3767 -0.6958
vn 0.7728 -0.6311 -0.0664
vn 0.7268 -0.5930 -0.3465
vn 0.5278 -0.4297 -0.7327
vn -0.4302 0.3530 -0.8309
vn -0.7509 0.6138 -0.2436
vn -0.7674 0.6271 -0.1332
vn -0.4623 0.3792 -0.8015
vn -0.5467 0.4452 0.7092
vn -0.1988 0.1605 0.9668
vn 0.2029 -0.1677 0.9647
vn 0.5497 -0.4504 0.7035
vn 0.5568 -0.4535 -0.6959
vn 0.6838 -0.7266 -0.0666
vn 0.6430 -0.6829 -0.3466
vn 0.4668 -0.4951 -0.7328
vn -0.3808 0.4060 -0.8308
vn -0.6645 0.7065 -0.2435
vn -0.6791 0.7219 -0.1330
vn -0.4093 0.4361 -0.8014
vn -0.4836 0.5129 0.7093
vn -0.1757 0.1853 0.9669
vn 0.1798 -0.1925 0.9647
vn 0.4866 -0.5182 0.7034
vn 0.4925 -0.5224 -0.6961
vn 0.5831 -0.8097 -0.0667
vn 0.5482 -0.7611 -0.3467
vn 0.3979 -0.5520 -0.7328
vn -0.3250 0.4520 -0.8307
vn -0.5667 0.7872 -0.2434
vn -0.5791 0.8043 -0.1329
vn -0.3492 0.4856 -0.8014
vn -0.4121 0.5718 0.7094
vn -0.1495 0.2068 0.9669
vn 0.1536 -0.2141 0.9647
vn 0.4151 -0.5771 0.7033
vn 0.4198 -0.5824 -0.6961
vn 0.4724 -0.8789 -0.0667
vn 0.4440 -0.8262 -0.3467
vn 0.3220 -0.5993 -0.7329
vn -0.2636 0.4903 -0.8307
vn -0.4592 0.8543 -0.2433
vn -0.4692 0.8730 -0.1329
vn -0.2833 0.5269 -0.8014
vn -0.3336 0.6209 0.7094
vn -0.1207 0.2248 0.9669
vn 0.1248 -0.2320 0.9647
vn 0.3366 -0.6261 0.7033
vn 0.3398 -0.6324 -0.6961
vn 0.3536 -0.9330 -0.0666
vn 0.3322 -0.8772 -0.3467
vn 0.2407 -0.6364 -0.7328
vn -0.1978 0.5203 -0.8307
vn -0.3439 0.9069 -0.2434
vn -0.3513 0.9268 -0.1330
vn -0.2125 0.5591 -0.8014
vn -0.2494 0.6593 0.7093
vn -0.0899 0.2389 0.9669
vn 0.0940 -0.2461 0.9647
vn 0.2524 -0.6646 0.7033
vn 0.2540 -0.6715 -0.6961
vn 0.2287 -0.9712 -0.0665
vn 0.2147 -0.9131 -0.3466
vn 0.1552 -0.6626 -0.7327
vn -0.1286 0.5415 -0.8308
vn -0.2227 0.9440 -0.2435
vn -0.2274 0.9647 -0.1331
vn -0.1381 0.5819 -0.8015
vn -0.1608 0.6864 0.7093
vn -0.0574 0.2488 0.9668
vn 0.0615 -0.2560 0.9647
vn 0.1638 -0.6916 0.7034
vn 0.1638 -0.6991 -0.6960
vn 0.1000 -0.9928 -0.0663
vn 0.0935 -0.9334 -0.3464
vn 0.0670 -0.6773 -0.7326
vn -0.0573 0.5535 -0.8309
vn -0.0977 0.9649 -0.2437
vn -0.0996 0.9861 -0.1333
vn -0.0614 0.5947 -0.8016
vn -0.0695 0.7017 0.7091
vn -0.0240 0.2544 0.9668
vn 0.0281 -0.2616 0.9648
vn 0.0725 -0.7069 0.7036
vn 0.0708 -0.7147 -0.6959
vn -0.0305 -0.9973 -0.0661
vn -0.0293 -0.9377 -0.3462
vn -0.0223 -0.6805 -0.7324
vn 0.0151 0.5560 -0.8310
vn 0.0290 0.9694 -0.2439
vn 0.0298 0.9906 -0.1335
vn 0.0164 0.5975 -0.8017
vn 0.0230 0.7049 0.7089
vn 0.0099 0.2556 0.9667
vn -0.0058 -0.2628 0.9648
vn -0.0200 -0.7102 0.7037
vn -0.0234 -0.7180 -0.6957
vn -0.1604 -0.9849 -0.0657
vn -0.1516 -0.9260 -0.3459
vn -0.1113 -0.6719 -0.7322
vn 0.0871 0.5491 -0.8312
vn 0.1551 0.9572 -0.2443
vn 0.1588 0.9782 -0.1339
vn 0.0938 0.5900 -0.8019
vn 0.1152 0.6960 0.7087
vn 0.0437 0.2524 0.9666
vn -0.0396 -0.2596 0.9649
vn -0.1122 -0.7013 0.7040
vn -0.1173 -0.7089 -0.6955
vn -0.2877 -0.9555 -0.0653
vn -0.2714 -0.8983 -0.3455
vn -0.1985 -0.6518 -0.7319
vn 0.1576 0.5328 -0.8314
vn 0.2786 0.9287 -0.2446
vn 0.2851 0.9491 -0.1342
vn 0.1696 0.5725 -0.8022
vn 0.2054 0.6752 0.7084
vn 0.0768 0.2447 0.9665
vn -0.0727 -0.2519 0.9650
vn -0.2024 -0.6805 0.7042
vn -0.2092 -0.6877 -0.6952
vn -0.4099 -0.9098 -0.0649
vn -0.3865 -0.8553 -0.3451
vn -0.2822 -0.6205 -0.7317
vn 0.2254 0.5075 -0.8317
vn 0.3973 0.8844 -0.2450
vn 0.4064 0.9037 -0.1347
vn 0.2425 0.5453 -0.8024
vn 0.2922 0.6428 0.7081
vn 0.1085 0.2329 0.9664
vn -0.1044 -0.2401 0.9651
vn -0.2892 -0.6481 0.7045
vn -0.2975 -0.6547 -0.6949
vn -0.5252 -0.8485 -0.0644
vn -0.4950 -0.7976 -0.3446
vn -0.3612 -0.5786 -0.7313
vn 0.2892 0.4735 -0.8319
vn 0.5092 0.8249 -0.2455
vn 0.5209 0.8429 -0.1351
vn 0.3112 0.5088 -0.8027
vn 0.3739 0.5993 0.7078
vn 0.1385 0.2169 0.9663
vn -0.1344 -0.2242 0.9652
vn -0.3709 -0.6046 0.7049
vn -0.3807 -0.6105 -0.6945
vn -0.6315 -0.7727 -0.0639
vn -0.5950 -0.7263 -0.3442
vn -0.4340 -0.5266 -0.7310
vn 0.3482 0.4315 -0.8322
vn 0.6124 0.7513 -0.2460
vn 0.6263 0.7677 -0.1356
vn 0.3745 0.4636 -0.8030
vn 0.4493 0.5456 0.7074
vn 0.1661 0.1972 0.9662
vn -0.1620 -0.2045 0.9654
vn -0.4463 -0.5509 0.7052
vn -0.4575 -0.5557 -0.6942
vn -0.7270 -0.6837 -0.0634
vn -0.6849 -0.6425 -0.3437
vn -0.4994 -0.4657 -0.7306
vn 0.4011 0.3822 -0.8325
vn 0.7051 0.6649 -0.2465
vn 0.7211 0.6793 -0.1362
vn 0.4314 0.4106 -0.8033
vn 0.5170 0.4824 0.7071
vn 0.1909 0.1741 0.9660
vn -0.1868 -0.1813 0.9655
vn -0.5140 -0.4877 0.7056
vn -0.5265 -0.4914 -0.6938
vn -0.8101 -0.5830 -0.0628
vn -0.7631 -0.5477 -0.3431
vn -0.5562 -0.3967 -0.7302
vn 0.4471 0.3263 -0.8328
vn 0.7857 0.5671 -0.2471
vn 0.8035 0.5793 -0.1367
vn 0.4809 0.3505 -0.8036
vn 0.5759 0.4110 0.7067
vn 0.2125 0.1479 0.9659
vn -0.2084 -0.1552 0.9657
vn -0.5729 -0.4163 0.7060
vn -0.5865 -0.4187 -0.6934
vn -0.8793 -0.4723 -0.0623
vn -0.8282 -0.4435 -0.3426
vn -0.6036 -0.3209 -0.7299
vn 0.4855 0.2650 -0.8331
vn 0.8529 0.4596 -0.2476
vn 0.8722 0.4695 -0.1373
vn 0.5222 0.2846 -0.8040
vn 0.6250 0.3325 0.7063
vn 0.2305 0.1192 0.9658
vn -0.2264 -0.1264 0.9658
vn -0.6220 -0.3378 0.7064
vn -0.6365 -0.3387 -0.6930
vn -0.9334 -0.3535 -0.0617
vn -0.8792 -0.3317 -0.3421
vn -0.6407 -0.2395 -0.7295
vn 0.5155 0.1991 -0.8334
vn 0.9055 0.3443 -0.2481
vn 0.9260 0.3516 -0.1378
vn 0.5544 0.2138 -0.8043
vn 0.6634 0.2482 0.7059
vn 0.2446 0.0883 0.9656
vn -0.2405 -0.0955 0.9659
vn -0.6604 -0.2535 0.7068
vn -0.6756 -0.2529 -0.6926
vn -0.9716 -0.2286 -0.0612
vn -0.9151 -0.2141 -0.3416
vn -0.6669 -0.1540 -0.7291
vn 0.5366 0.1300 -0.8337
vn 0.9425 0.2231 -0.2487
vn 0.9639 0.2277 -0.1384
vn 0.5772 0.1394 -0.8046
vn 0.6905 0.1597 0.7055
vn 0.2545 0.0559 0.9655
vn -0.2504 -0.0631 0.9661
vn -0.6875 -0.1650 0.7072
vn -0.7032 -0.1627 -0.6922
vn -0.9931 -0.0999 -0.0607
vn -0.9354 -0.0930 -0.3411
vn -0.6816 -0.0658 -0.7287
vn 0.5486 0.0586 -0.8340
vn 0.9635 0.0981 -0.2492
vn 0.9853 0.0999 -0.1389
vn 0.5900 0.0627 -0.8050
vn 0.7058 0.0684 0.7051
vn 0.2601 0.0224 0.9653
vn -0.2560 -0.0296 0.9662
vn -0.7028 -0.0736 0.7076
vn -0.7187 -0.0697 -0.6918
vn -0.9977 0.0306 -0.0602
vn -0.9397 0.0299 -0.3406
vn -0.6848 0.0235 -0.7284
vn 0.5511 -0.0137 -0.8343
vn 0.9679 -0.0285 -0.2497
vn 0.9898 -0.0296 -0.1394
vn 0.5927 -0.0151 -0.8052
vn -0.7220 0.0245 -0.6914
vn -0.9852 0.1605 -0.0597
vn -0.9280 0.1522 -0.3402
vn -0.6762 0.1125 -0.7281
vn 0.5442 -0.0857 -0.8346
vn 0.9558 -0.1547 -0.2501
vn 0.9774 -0.1586 -0.1398
vn 0.5853 -0.0925 -0.8055
vn -0.7130 0.1184 -0.6911
vn -0.9559 0.2877 -0.0593
vn -0.9003 0.2719 -0.3398
vn -0.6561 0.1996 -0.7278
vn 0.5279 -0.1562 -0.8348
vn 0.9273 -0.2782 -0.2505
vn 0.9483 -0.2848 -0.1402
vn 0.5678 -0.1683 -0.8058
vn -0.6918 0.2103 -0.6908
vn -0.9102 0.4100 -0.0589
vn -0.8573 0.3870 -0.3395
vn -0.6248 0.2834 -0.7275
vn 0.5026 -0.2240 -0.8350
vn 0.8829 -0.3969 -0.2509
vn 0.9029 -0.4062 -0.1406
vn 0.5406 -0.2412 -0.8060
vn -0.6588 0.2986 -0.6905
vn -0.8489 0.5253 -0.0586
vn -0.7996 0.4955 -0.3392
vn -0.5828 0.3623 -0.7273
vn 0.4686 -0.2879 -0.8352
vn 0.8234 -0.5088 -0.2512
vn 0.8421 -0.5206 -0.1409
vn 0.5041 -0.3099 -0.8062
vn -0.6145 0.3819 -0.6903
vn -0.7731 0.6316 -0.0584
vn -0.7283 0.5956 -0.3389
vn -0.5309 0.4351 -0.7272
vn 0.4266 -0.3468 -0.8353
vn 0.7498 -0.6120 -0.2514
vn 0.7669 -0.6261 -0.1411
vn 0.4589 -0.3732 -0.8063
vn -0.5598 0.4586 -0.6902
vn -0.6841 0.7271 -0.0582
vn -0.6445 0.6855 -0.3388
vn -0.4699 0.5005 -0.7271
vn 0.3773 -0.3997 -0.8354
vn 0.6634 -0.7047 -0.2515
vn 0.6785 -0.7209 -0.1413
vn 0.4058 -0.4301 -0.8064
vn -0.4955 0.5276 -0.6900
vn -0.5833 0.8101 -0.0581
vn -0.5497 0.7636 -0.3387
vn -0.4010 0.5574 -0.7270
vn 0.3215 -0.4458 -0.8354
vn 0.5656 -0.7853 -0.2516
vn 0.5785 -0.8033 -0.1414
vn 0.3458 -0.4796 -0.8065
vn -0.4227 0.5876 -0.6900
vn -0.4726 0.8793 -0.0581
vn -0.4455 0.8288 -0.3387
vn -0.3251 0.6048 -0.7270
vn 0.2601 -0.4841 -0.8355
vn 0.4582 -0.8525 -0.2517
vn 0.4687 -0.8720 -0.1414
vn 0.2798 -0.5209 -0.8065
vn -0.3428 0.6376 -0.6899
vn -0.3538 0.9335 -0.0582
vn -0.3337 0.8797 -0.3387
vn -0.2438 0.6419 -0.7270
vn 0.1943 -0.5141 -0.8354
vn 0.3428 -0.9051 -0.2516
vn 0.3508 -0.9257 -0.1414
vn 0.2091 -0.5531 -0.8064
vn -0.2570 0.6767 -0.6900
vn -0.2290 0.9717 -0.0583
vn -0.2162 0.9157 -0.3388
vn -0.1583 0.6680 -0.7271
vn 0.1251 -0.5353 -0.8354
vn 0.2217 -0.9421 -0.2515
vn 0.2269 -0.9636 -0.1412
vn 0.1347 -0.5759 -0.8064
vn -0.1668 0.7043 -0.6901
vn -0.1002 0.9932 -0.0585
vn -0.0950 0.9360 -0.3390
vn -0.0701 0.6828 -0.7272
vn 0.0537 -0.5472 -0.8353
vn 0.0967 -0.9631 -0.2513
vn 0.0991 -0.9850 -0.1411
vn 0.0579 -0.5887 -0.8063
vn -0.0695 0.7016 0.7091
vn -0.0738 0.7198 -0.6902
vn 0.0302 0.9978 -0.0587
vn 0.0279 0.9403 -0.3393
vn 0.0192 0.6859 -0.7274
vn -0.0186 -0.5498 -0.8351
vn -0.0300 -0.9675 -0.2511
vn -0.0304 -0.9896 -0.1408
vn -0.0198 -0.5914 -0.8061
vn 0.0205 0.7231 -0.6904
vn 0.1602 0.9853 -0.0590
vn 0.1502 0.9285 -0.3396
vn 0.1082 0.6774 -0.7276
vn -0.0906 -0.5428 -0.8349
vn -0.1562 -0.9554 -0.2507
vn -0.1594 -0.9772 -0.1405
vn -0.0972 -0.5840 -0.8059
vn 0.1143 0.7141 -0.6906
vn 0.2874 0.9560 -0.0594
vn 0.2699 0.9009 -0.3399
vn 0.1954 0.6573 -0.7279
vn -0.1611 -0.5266 -0.8347
vn -0.2796 -0.9269 -0.2504
vn -0.2857 -0.9480 -0.1401
vn -0.1730 -0.5665 -0.8057
vn 0.2062 0.6929 -0.6909
vn 0.4097 0.9103 -0.0599
vn 0.3850 0.8579 -0.3403
vn 0.2791 0.6260 -0.7282
vn -0.2289 -0.5012 -0.8345
vn -0.3984 -0.8825 -0.2500
vn -0.4070 -0.9027 -0.1397
vn -0.2459 -0.5393 -0.8054
vn 0.2945 0.6599 -0.6912
vn 0.5250 0.8490 -0.0603
vn 0.4935 0.8002 -0.3408
vn 0.3581 0.5840 -0.7285
vn -0.2928 -0.4673 -0.8342
vn -0.5103 -0.8230 -0.2495
vn -0.5214 -0.8419 -0.1392
vn -0.3146 -0.5028 -0.8051
vn 0.3778 0.6156 -0.6916
vn 0.6313 0.7732 -0.0608
vn 0.5936 0.7288 -0.3413
vn 0.4309 0.5321 -0.7289
vn -0.3517 -0.4253 -0.8339
vn -0.6135 -0.7494 -0.2490
vn -0.6269 -0.7666 -0.1387
vn -0.3779 -0.4576 -0.8048
vn 0.4546 0.5609 -0.6919
vn 0.7267 0.6842 -0.0614
vn 0.6835 0.6450 -0.3418
vn 0.4963 0.4711 -0.7292
vn -0.4046 -0.3759 -0.8336
vn -0.7062 -0.6630 -0.2485
vn -0.7217 -0.6783 -0.1382
vn -0.4348 -0.4045 -0.8045
vn 0.5235 0.4966 -0.6923
vn 0.8098 0.5834 -0.0619
vn 0.7616 0.5502 -0.3423
vn 0.5531 0.4021 -0.7296
vn -0.4507 -0.3201 -0.8333
vn -0.7868 -0.5652 -0.2479
vn -0.8041 -0.5783 -0.1376
vn -0.4843 -0.3445 -0.8042
vn 0.5835 0.4238 -0.6927
vn 0.8790 0.4727 -0.0625
vn 0.8268 0.4460 -0.3428
vn 0.6005 0.3263 -0.7300
vn -0.4890 -0.2588 -0.8330
vn -0.8540 -0.4578 -0.2474
vn -0.8728 -0.4684 -0.1371
vn -0.5256 -0.2786 -0.8039
vn 0.6335 0.3439 -0.6931
vn 0.9331 0.3539 -0.0630
vn 0.8777 0.3342 -0.3433
vn 0.6376 0.2450 -0.7304
vn -0.5190 -0.1929 -0.8327
vn -0.9065 -0.3425 -0.2469
vn -0.9265 -0.3505 -0.1365
vn -0.5578 -0.2078 -0.8035
vn 0.6726 0.2581 -0.6935
vn 0.9713 0.2291 -0.0636
vn 0.9137 0.2167 -0.3439
vn 0.6638 0.1595 -0.7307
vn -0.5402 -0.1237 -0.8324
vn -0.9436 -0.2213 -0.2463
vn -0.9644 -0.2266 -0.1360
vn -0.5806 -0.1334 -0.8032
vn 0.7002 0.1679 -0.6939
vn 0.9929 0.1003 -0.0641
vn 0.9340 0.0955 -0.3443
vn 0.6785 0.0713 -0.7311
vn -0.5521 -0.0524 -0.8321
vn -0.9645 -0.0963 -0.2458
vn -0.9858 -0.0988 -0.1354
vn -0.5934 -0.0567 -0.8029
vn 0.7158 0.0749 -0.6943
usemtl None
# s off
f 1/1/1 13/2/1 14/3/1 2/4/1
f 2/4/2 14/3/2 15/5/2 3/6/2
f 3/6/3 15/5/3 16/7/3 4/8/3
f 4/8/4 16/7/4 17/9/4 5/10/4
f 5/10/5 17/9/5 18/11/5 6/12/5
f 6/12/6 18/11/6 19/13/6 7/14/6
f 7/15/7 19/16/7 20/17/7 8/18/7
f 8/18/8 20/17/8 21/19/8 9/20/8
f 9/20/9 21/19/9 22/21/9 10/22/9
f 10/22/10 22/21/10 23/23/10 11/24/10
f 11/24/11 23/23/11 24/25/11 12/26/11
f 12/26/12 24/25/12 13/2/12 1/1/12
f 13/2/13 25/27/13 26/28/13 14/3/13
f 14/3/14 26/28/14 27/29/14 15/5/14
f 15/5/15 27/29/15 28/30/15 16/7/15
f 16/7/16 28/30/16 29/31/16 17/9/16
f 17/9/17 29/31/17 30/32/17 18/11/17
f 18/11/18 30/32/18 31/33/18 19/13/18
f 19/16/19 31/34/19 32/35/19 20/17/19
f 20/17/20 32/35/20 33/36/20 21/19/20
f 21/19/21 33/36/21 34/37/21 22/21/21
f 22/21/22 34/37/22 35/38/22 23/23/22
f 23/23/23 35/38/23 36/39/23 24/25/23
f 24/25/24 36/39/24 25/27/24 13/2/24
f 25/27/25 37/40/25 38/41/25 26/28/25
f 26/28/26 38/41/26 39/42/26 27/29/26
f 27/29/27 39/42/27 40/43/27 28/30/27
f 28/30/28 40/43/28 41/44/28 29/31/28
f 29/31/29 41/44/29 42/45/29 30/32/29
f 30/32/30 42/45/30 43/46/30 31/33/30
f 31/34/31 43/47/31 44/48/31 32/35/31
f 32/35/32 44/48/32 45/49/32 33/36/32
f 33/36/33 45/49/33 46/50/33 34/37/33
f 34/37/34 46/50/34 47/51/34 35/38/34
f 35/38/35 47/51/35 48/52/35 36/39/35
f 36/39/36 48/52/36 37/40/36 25/27/36
f 37/40/37 49/53/37 50/54/37 38/41/37
f 38/41/38 50/54/38 51/55/38 39/42/38
f 39/42/39 51/55/39 52/56/39 40/43/39
f 40/43/40 52/56/40 53/57/40 41/44/40
f 41/44/41 53/57/41 54/58/41 42/45/41
f 42/45/42 54/58/42 55/59/42 43/46/42
f 43/47/43 55/60/43 56/61/43 44/48/43
f 44/48/44 56/61/44 57/62/44 45/49/44
f 45/49/45 57/62/45 58/63/45 46/50/45
f 46/50/46 58/63/46 59/64/46 47/51/46
f 47/51/47 59/64/47 60/65/47 48/52/47
f 48/52/48 60/65/48 49/53/48 37/40/48
f 49/53/49 61/66/49 62/67/49 50/54/49
f 50/54/50 62/67/50 63/68/50 51/55/50
f 51/55/51 63/68/51 64/69/51 52/56/51
f 52/56/52 64/69/52 65/70/52 53/57/52
f 53/57/53 65/70/53 66/71/53 54/58/53
f 54/58/54 66/71/54 67/72/54 55/59/54
f 55/60/55 67/73/55 68/74/55 56/61/55
f 56/61/56 68/74/56 69/75/56 57/62/56
f 57/62/57 69/75/57 70/76/57 58/63/57
f 58/63/58 70/76/58 71/77/58 59/64/58
f 59/64/59 71/77/59 72/78/59 60/65/59
f 60/65/60 72/78/60 61/66/60 49/53/60
f 61/66/61 73/79/61 74/80/61 62/67/61
f 62/67/62 74/80/62 75/81/62 63/68/62
f 63/68/63 75/81/63 76/82/63 64/69/63
f 64/69/64 76/82/64 77/83/64 65/70/64
f 65/70/65 77/83/65 78/84/65 66/71/65
f 66/71/66 78/84/66 79/85/66 67/72/66
f 67/73/67 79/86/67 80/87/67 68/74/67
f 68/74/68 80/87/68 81/88/68 69/75/68
f 69/75/69 81/88/69 82/89/69 70/76/69
f 70/76/70 82/89/70 83/90/70 71/77/70
f 71/77/71 83/90/71 84/91/71 72/78/71
f 72/78/72 84/91/72 73/79/72 61/66/72
f 73/79/73 85/92/73 86/93/73 74/80/73
f 74/80/74 86/93/74 87/94/74 75/81/74
f 75/81/75 87/94/75 88/95/75 76/82/75
f 76/82/76 88/95/76 89/96/76 77/83/76
f 77/83/77 89/96/77 90/97/77 78/84/77
f 78/84/78 90/97/78 91/98/78 79/85/78
f 79/86/79 91/99/79 92/100/79 80/87/79
f 80/87/80 92/100/80 93/101/80 81/88/80
f 81/88/81 93/101/81 94/102/81 82/89/81
f 82/89/82 94/102/82 95/103/82 83/90/82
f 83/90/83 95/103/83 96/104/83 84/91/83
f 84/91/84 96/104/84 85/92/84 73/79/84
f 85/92/85 97/105/85 98/106/85 86/93/85
f 86/93/86 98/106/86 99/107/86 87/94/86
f 87/94/87 99/107/87 100/108/87 88/95/87
f 88/95/88 100/108/88 101/109/88 89/96/88
f 89/96/89 101/109/89 102/110/89 90/97/89
f 90/97/90 102/110/90 103/111/90 91/98/90
f 91/99/91 103/112/91 104/113/91 92/100/91
f 92/100/92 104/113/92 105/114/92 93/101/92
f 93/101/93 105/114/93 106/115/93 94/102/93
f 94/102/94 106/115/94 107/116/94 95/103/94
f 95/103/95 107/116/95 108/117/95 96/104/95
f 96/104/96 108/117/96 97/105/96 85/92/96
f 97/105/97 109/118/97 110/119/97 98/106/97
f 98/106/98 110/119/98 111/120/98 99/107/98
f 99/107/99 111/120/99 112/121/99 100/108/99
f 100/108/100 112/121/100 113/122/100 101/109/100
f 101/109/101 113/122/101 114/123/101 102/110/101
f 102/110/102 114/123/102 115/124/102 103/111/102
f 103/112/103 115/125/103 116/126/103 104/113/103
f 104/113/104 116/126/104 117/127/104 105/114/104
f 105/114/105 117/127/105 118/128/105 106/115/105
f 106/115/106 118/128/106 119/129/106 107/116/106
f 107/116/107 119/129/107 120/130/107 108/117/107
f 108/117/108 120/130/108 109/118/108 97/105/108
f 109/118/109 121/131/109 122/132/109 110/119/109
f 110/119/110 122/132/110 123/133/110 111/120/110
f 111/120/111 123/133/111 124/134/111 112/121/111
f 112/121/112 124/134/112 125/135/112 113/122/112
f 113/122/113 125/135/113 126/136/113 114/123/113
f 114/123/114 126/136/114 127/137/114 115/124/114
f 115/125/115 127/138/115 128/139/115 116/126/115
f 116/126/116 128/139/116 129/140/116 117/127/116
f 117/127/117 129/140/117 130/141/117 118/128/117
f 118/128/118 130/141/118 131/142/118 119/129/118
f 119/129/119 131/142/119 132/143/119 120/130/119
f 120/130/120 132/143/120 121/131/120 109/118/120
f 121/131/121 133/144/121 134/145/121 122/132/121
f 122/132/122 134/145/122 135/146/122 123/133/122
f 123/133/123 135/146/123 136/147/123 124/134/123
f 124/134/124 136/147/124 137/148/124 125/135/124
f 125/135/125 137/148/125 138/149/125 126/136/125
f 126/136/126 138/149/126 139/150/126 127/137/126
f 127/138/127 139/151/127 140/152/127 128/139/127
f 128/139/128 140/152/128 141/153/128 129/140/128
f 129/140/129 141/153/129 142/154/129 130/141/129
f 130/141/130 142/154/130 143/155/130 131/142/130
f 131/142/131 143/155/131 144/156/131 132/143/131
f 132/143/132 144/156/132 133/144/132 121/131/132
f 133/144/133 145/157/133 146/158/133 134/145/133
f 134/145/134 146/158/134 147/159/134 135/146/134
f 135/146/135 147/159/135 148/160/135 136/147/135
f 136/147/136 148/160/136 149/161/136 137/148/136
f 137/148/137 149/161/137 150/162/137 138/149/137
f 138/149/138 150/162/138 151/163/138 139/150/138
f 139/151/139 151/164/139 152/165/139 140/152/139
f 140/152/140 152/165/140 153/166/140 141/153/140
f 141/153/141 153/166/141 154/167/141 142/154/141
f 142/154/142 154/167/142 155/168/142 143/155/142
f 143/155/143 155/168/143 156/169/143 144/156/143
f 144/156/144 156/169/144 145/157/144 133/144/144
f 145/157/145 157/170/145 158/171/145 146/158/145
f 146/158/146 158/171/146 159/172/146 147/159/146
f 147/159/147 159/172/147 160/173/147 148/160/147
f 148/160/148 160/173/148 161/174/148 149/161/148
f 149/161/149 161/174/149 162/175/149 150/162/149
f 150/162/150 162/175/150 163/176/150 151/163/150
f 151/164/151 163/177/151 164/178/151 152/165/151
f 152/165/152 164/178/152 165/179/152 153/166/152
f 153/166/153 165/179/153 166/180/153 154/167/153
f 154/167/154 166/180/154 167/181/154 155/168/154
f 155/168/155 167/181/155 168/182/155 156/169/155
f 156/169/156 168/182/156 157/170/156 145/157/156
f 157/170/157 169/183/157 170/184/157 158/171/157
f 158/171/158 170/184/158 171/185/158 159/172/158
f 159/172/159 171/185/159 172/186/159 160/173/159
f 160/173/160 172/186/160 173/187/160 161/174/160
f 161/174/161 173/187/161 174/188/161 162/175/161
f 162/175/162 174/188/162 175/189/162 163/176/162
f 163/177/163 175/190/163 176/191/163 164/178/163
f 164/178/164 176/191/164 177/192/164 165/179/164
f 165/179/165 177/192/165 178/193/165 166/180/165
f 166/180/166 178/193/166 179/194/166 167/181/166
f 167/181/167 179/194/167 180/195/167 168/182/167
f 168/182/168 180/195/168 169/183/168 157/170/168
f 169/183/169 181/196/169 182/197/169 170/184/169
f 170/184/170 182/197/170 183/198/170 171/185/170
f 171/185/171 183/198/171 184/199/171 172/186/171
f 172/186/172 184/199/172 185/200/172 173/187/172
f 173/187/173 185/200/173 186/201/173 174/188/173
f 174/188/174 186/201/174 187/202/174 175/189/174
f 175/190/175 187/203/175 188/204/175 176/191/175
f 176/191/176 188/204/176 189/205/176 177/192/176
f 177/192/177 189/205/177 190/206/177 178/193/177
f 178/193/178 190/206/178 191/207/178 179/194/178
f 179/194/179 191/207/179 192/208/179 180/195/179
f 180/195/180 192/208/180 181/196/180 169/183/180
f 181/196/181 193/209/181 194/210/181 182/197/181
f 182/197/182 194/210/182 195/211/182 183/198/182
f 183/198/183 195/211/183 196/212/183 184/199/183
f 184/199/184 196/212/184 197/213/184 185/200/184
f 185/200/185 197/213/185 198/214/185 186/201/185
f 186/201/186 198/214/186 199/215/186 187/202/186
f 187/203/187 199/216/187 200/217/187 188/204/187
f 188/204/188 200/217/188 201/218/188 189/205/188
f 189/205/189 201/218/189 202/219/189 190/206/189
f 190/206/190 202/219/190 203/220/190 191/207/190
f 191/207/191 203/220/191 204/221/191 192/208/191
f 192/208/192 204/221/192 193/209/192 181/196/192
f 193/209/193 205/222/193 206/223/193 194/210/193
f 194/210/194 206/223/194 207/224/194 195/211/194
f 195/211/195 207/224/195 208/225/195 196/212/195
f 196/212/196 208/225/196 209/226/196 197/213/196
f 197/213/197 209/226/197 210/227/197 198/214/197
f 198/214/198 210/227/198 211/228/198 199/215/198
f 199/216/199 211/229/199 212/230/199 200/217/199
f 200/217/200 212/230/200 213/231/200 201/218/200
f 201/218/201 213/231/201 214/232/201 202/219/201
f 202/219/202 214/232/202 215/233/202 203/220/202
f 203/220/203 215/233/203 216/234/203 204/221/203
f 204/221/204 216/234/204 205/222/204 193/209/204
f 205/222/205 217/235/205 218/236/205 206/223/205
f 206/223/206 218/236/206 219/237/206 207/224/206
f 207/224/207 219/237/207 220/238/207 208/225/207
f 208/225/208 220/238/208 221/239/208 209/226/208
f 209/226/209 221/239/209 222/240/209 210/227/209
f 210/227/210 222/240/210 223/241/210 211/228/210
f 211/229/211 223/242/211 224/243/211 212/230/211
f 212/230/212 224/243/212 225/244/212 213/231/212
f 213/231/213 225/244/213 226/245/213 214/232/213
f 214/232/214 226/245/214 227/246/214 215/233/214
f 215/233/215 227/246/215 228/247/215 216/234/215
f 216/234/216 228/247/216 217/235/216 205/222/216
f 217/235/217 229/248/217 230/249/217 218/236/217
f 218/236/218 230/249/218 231/250/218 219/237/218
f 219/237/219 231/250/219 232/251/219 220/238/219
f 220/238/220 232/251/220 233/252/220 221/239/220
f 221/239/221 233/252/221 234/253/221 222/240/221
f 222/240/222 234/253/222 235/254/222 223/241/222
f 223/242/223 235/255/223 236/256/223 224/243/223
f 224/243/224 236/256/224 237/257/224 225/244/224
f 225/244/225 237/257/225 238/258/225 226/245/225
f 226/245/226 238/258/226 239/259/226 227/246/226
f 227/246/227 239/259/227 240/260/227 228/247/227
f 228/247/228 240/260/228 229/248/228 217/235/228
f 229/248/229 241/261/229 242/262/229 230/249/229
f 230/249/230 242/262/230 243/263/230 231/250/230
f 231/250/231 243/263/231 244/264/231 232/251/231
f 232/251/232 244/264/232 245/265/232 233/252/232
f 233/252/233 245/265/233 246/266/233 234/253/233
f 234/253/234 246/266/234 247/267/234 235/254/234
f 235/255/235 247/268/235 248/269/235 236/256/235
f 236/256/236 248/269/236 249/270/236 237/257/236
f 237/257/237 249/270/237 250/271/237 238/258/237
f 238/258/238 250/271/238 251/272/238 239/259/238
f 239/259/239 251/272/239 252/273/239 240/260/239
f 240/260/240 252/273/240 241/261/240 229/248/240
f 241/261/241 253/274/241 254/275/241 242/262/241
f 242/262/242 254/275/242 255/276/242 243/263/242
f 243/263/243 255/276/243 256/277/243 244/264/243
f 244/264/244 256/277/244 257/278/244 245/265/244
f 245/265/245 257/278/245 258/279/245 246/266/245
f 246/266/246 258/279/246 259/280/246 247/267/246
f 247/268/247 259/281/247 260/282/247 248/269/247
f 248/269/248 260/282/248 261/283/248 249/270/248
f 249/270/249 261/283/249 262/284/249 250/271/249
f 250/271/250 262/284/250 263/285/250 251/272/250
f 251/272/251 263/285/251 264/286/251 252/273/251
f 252/273/252 264/286/252 253/274/252 241/261/252
f 253/274/253 265/287/253 266/288/253 254/275/253
f 254/275/254 266/288/254 267/289/254 255/276/254
f 255/276/255 267/289/255 268/290/255 256/277/255
f 256/277/256 268/290/256 269/291/256 257/278/256
f 257/278/257 269/291/257 270/292/257 258/279/257
f 258/279/258 270/292/258 271/293/258 259/280/258
f 259/281/259 271/294/259 272/295/259 260/282/259
f 260/282/260 272/295/260 273/296/260 261/283/260
f 261/283/261 273/296/261 274/297/261 262/284/261
f 262/284/262 274/297/262 275/298/262 263/285/262
f 263/285/263 275/298/263 276/299/263 264/286/263
f 264/286/264 276/299/264 265/287/264 253/274/264
f 265/287/265 277/300/265 278/301/265 266/288/265
f 266/288/266 278/301/266 279/302/266 267/289/266
f 267/289/267 279/302/267 280/303/267 268/290/267
f 268/290/268 280/303/268 281/304/268 269/291/268
f 269/291/269 281/304/269 282/305/269 270/292/269
f 270/292/270 282/305/270 283/306/270 271/293/270
f 271/294/271 283/307/271 284/308/271 272/295/271
f 272/295/272 284/308/272 285/309/272 273/296/272
f 273/296/273 285/309/273 286/310/273 274/297/273
f 274/297/274 286/310/274 287/311/274 275/298/274
f 275/298/275 287/311/275 288/312/275 276/299/275
f 276/299/276 288/312/276 277/300/276 265/287/276
f 277/300/277 289/313/277 290/314/277 278/301/277
f 278/301/278 290/314/278 291/315/278 279/302/278
f 279/302/279 291/315/279 292/316/279 280/303/279
f 280/303/280 292/316/280 293/317/280 281/304/280
f 281/304/281 293/317/281 294/318/281 282/305/281
f 282/305/282 294/318/282 295/319/282 283/306/282
f 283/307/283 295/320/283 296/321/283 284/308/283
f 284/308/284 296/321/284 297/322/284 285/309/284
f 285/309/285 297/322/285 298/323/285 286/310/285
f 286/310/286 298/323/286 299/324/286 287/311/286
f 287/311/287 299/324/287 300/325/287 288/312/287
f 288/312/288 300/325/288 289/313/288 277/300/288
f 289/326/289 301/327/289 302/328/289 290/329/289
f 290/329/290 302/328/290 303/330/290 291/331/290
f 291/331/291 303/330/291 304/332/291 292/333/291
f 292/333/292 304/332/292 305/334/292 293/335/292
f 293/335/293 305/334/293 306/336/293 294/337/293
f 294/337/294 306/336/294 307/338/294 295/339/294
f 295/340/295 307/341/295 308/342/295 296/343/295
f 296/343/11 308/342/11 309/344/11 297/345/11
f 297/345/10 309/344/10 310/346/10 298/347/10
f 298/347/9 310/346/9 311/348/9 299/349/9
f 299/349/8 311/348/8 312/350/8 300/351/8
f 300/351/296 312/350/296 301/327/296 289/326/296
f 301/327/297 313/352/297 314/353/297 302/328/297
f 302/328/298 314/353/298 315/354/298 303/330/298
f 303/330/299 315/354/299 316/355/299 304/332/299
f 304/332/300 316/355/300 317/356/300 305/334/300
f 305/334/301 317/356/301 318/357/301 306/336/301
f 306/336/302 318/357/302 319/358/302 307/338/302
f 307/341/303 319/359/303 320/360/303 308/342/303
f 308/342/23 320/360/23 321/361/23 309/344/23
f 309/344/22 321/361/22 322/362/22 310/346/22
f 310/346/21 322/362/21 323/363/21 311/348/21
f 311/348/20 323/363/20 324/364/20 312/350/20
f 312/350/304 324/364/304 313/352/304 301/327/304
f 313/352/305 325/365/305 326/366/305 314/353/305
f 314/353/306 326/366/306 327/367/306 315/354/306
f 315/354/307 327/367/307 328/368/307 316/355/307
f 316/355/308 328/368/308 329/369/308 317/356/308
f 317/356/309 329/369/309 330/370/309 318/357/309
f 318/357/310 330/370/310 331/371/310 319/358/310
f 319/359/311 331/372/311 332/373/311 320/360/311
f 320/360/35 332/373/35 333/374/35 321/361/35
f 321/361/34 333/374/34 334/375/34 322/362/34
f 322/362/33 334/375/33 335/376/33 323/363/33
f 323/363/32 335/376/32 336/377/32 324/364/32
f 324/364/312 336/377/312 325/365/312 313/352/312
f 325/365/313 337/378/313 338/379/313 326/366/313
f 326/366/314 338/379/314 339/380/314 327/367/314
f 327/367/315 339/380/315 340/381/315 328/368/315
f 328/368/316 340/381/316 341/382/316 329/369/316
f 329/369/317 341/382/317 342/383/317 330/370/317
f 330/370/318 342/383/318 343/384/318 331/371/318
f 331/372/319 343/385/319 344/386/319 332/373/319
f 332/373/47 344/386/47 345/387/47 333/374/47
f 333/374/46 345/387/46 346/388/46 334/375/46
f 334/375/45 346/388/45 347/389/45 335/376/45
f 335/376/44 347/389/44 348/390/44 336/377/44
f 336/377/320 348/390/320 337/378/320 325/365/320
f 337/378/321 349/391/321 350/392/321 338/379/321
f 338/379/322 350/392/322 351/393/322 339/380/322
f 339/380/323 351/393/323 352/394/323 340/381/323
f 340/381/324 352/394/324 353/395/324 341/382/324
f 341/382/325 353/395/325 354/396/325 342/383/325
f 342/383/326 354/396/326 355/397/326 343/384/326
f 343/385/327 355/398/327 356/399/327 344/386/327
f 344/386/59 356/399/59 357/400/59 345/387/59
f 345/387/58 357/400/58 358/401/58 346/388/58
f 346/388/57 358/401/57 359/402/57 347/389/57
f 347/389/56 359/402/56 360/403/56 348/390/56
f 348/390/328 360/403/328 349/391/328 337/378/328
f 349/391/329 361/404/329 362/405/329 350/392/329
f 350/392/330 362/405/330 363/406/330 351/393/330
f 351/393/331 363/406/331 364/407/331 352/394/331
f 352/394/332 364/407/332 365/408/332 353/395/332
f 353/395/333 365/408/333 366/409/333 354/396/333
f 354/396/334 366/409/334 367/410/334 355/397/334
f 355/398/335 367/411/335 368/412/335 356/399/335
f 356/399/71 368/412/71 369/413/71 357/400/71
f 357/400/70 369/413/70 370/414/70 358/401/70
f 358/401/69 370/414/69 371/415/69 359/402/69
f 359/402/68 371/415/68 372/416/68 360/403/68
f 360/403/336 372/416/336 361/404/336 349/391/336
f 361/404/337 373/417/337 374/418/337 362/405/337
f 362/405/338 374/418/338 375/419/338 363/406/338
f 363/406/339 375/419/339 376/420/339 364/407/339
f 364/407/340 376/420/340 377/421/340 365/408/340
f 365/408/341 377/421/341 378/422/341 366/409/341
f 366/409/342 378/422/342 379/423/342 367/410/342
f 367/411/343 379/424/343 380/425/343 368/412/343
f 368/412/83 380/425/83 381/426/83 369/413/83
f 369/413/82 381/426/82 382/427/82 370/414/82
f 370/414/81 382/427/81 383/428/81 371/415/81
f 371/415/80 383/428/80 384/429/80 372/416/80
f 372/416/344 384/429/344 373/417/344 361/404/344
f 373/417/345 385/430/345 386/431/345 374/418/345
f 374/418/346 386/431/346 387/432/346 375/419/346
f 375/419/347 387/432/347 388/433/347 376/420/347
f 376/420/348 388/433/348 389/434/348 377/421/348
f 377/421/349 389/434/349 390/435/349 378/422/349
f 378/422/350 390/435/350 391/436/350 379/423/350
f 379/424/351 391/437/351 392/438/351 380/425/351
f 380/425/95 392/438/95 393/439/95 381/426/95
f 381/426/94 393/439/94 394/440/94 382/427/94
f 382/427/93 394/440/93 395/441/93 383/428/93
f 383/428/92 395/441/92 396/442/92 384/429/92
f 384/429/352 396/442/352 385/430/352 373/417/352
f 385/430/353 397/443/353 398/444/353 386/431/353
f 386/431/354 398/444/354 399/445/354 387/432/354
f 387/432/355 399/445/355 400/446/355 388/433/355
f 388/433/356 400/446/356 401/447/356 389/434/356
f 389/434/357 401/447/357 402/448/357 390/435/357
f 390/435/358 402/448/358 403/449/358 391/436/358
f 391/437/359 403/450/359 404/451/359 392/438/359
f 392/438/107 404/451/107 405/452/107 393/439/107
f 393/439/106 405/452/106 406/453/106 394/440/106
f 394/440/105 406/453/105 407/454/105 395/441/105
f 395/441/104 407/454/104 408/455/104 396/442/104
f 396/442/360 408/455/360 397/443/360 385/430/360
f 397/443/361 409/456/361 410/457/361 398/444/361
f 398/444/362 410/457/362 411/458/362 399/445/362
f 399/445/363 411/458/363 412/459/363 400/446/363
f 400/446/364 412/459/364 413/460/364 401/447/364
f 401/447/365 413/460/365 414/461/365 402/448/365
f 402/448/366 414/461/366 415/462/366 403/449/366
f 403/450/367 415/463/367 416/464/367 404/451/367
f 404/451/119 416/464/119 417/465/119 405/452/119
f 405/452/118 417/465/118 418/466/118 406/453/118
f 406/453/117 418/466/117 419/467/117 407/454/117
f 407/454/116 419/467/116 420/468/116 408/455/116
f 408/455/368 420/468/368 409/456/368 397/443/368
f 409/456/369 421/469/369 422/470/369 410/457/369
f 410/457/370 422/470/370 423/471/370 411/458/370
f 411/458/371 423/471/371 424/472/371 412/459/371
f 412/459/372 424/472/372 425/473/372 413/460/372
f 413/460/373 425/473/373 426/474/373 414/461/373
f 414/461/374 426/474/374 427/475/374 415/462/374
f 415/463/375 427/476/375 428/477/375 416/464/375
f 416/464/131 428/477/131 429/478/131 417/465/131
f 417/465/130 429/478/130 430/479/130 418/466/130
f 418/466/129 430/479/129 431/480/129 419/467/129
f 419/467/128 431/480/128 432/481/128 420/468/128
f 420/468/376 432/481/376 421/469/376 409/456/376
f 421/469/377 433/482/377 434/483/377 422/470/377
f 422/470/378 434/483/378 435/484/378 423/471/378
f 423/471/379 435/484/379 436/485/379 424/472/379
f 424/472/380 436/485/380 437/486/380 425/473/380
f 425/473/381 437/486/381 438/487/381 426/474/381
f 426/474/382 438/487/382 439/488/382 427/475/382
f 427/476/383 439/489/383 440/490/383 428/477/383
f 428/477/143 440/490/143 441/491/143 429/478/143
f 429/478/142 441/491/142 442/492/142 430/479/142
f 430/479/141 442/492/141 443/493/141 431/480/141
f 431/480/384 443/493/384 444/494/384 432/481/384
f 432/481/385 444/494/385 433/482/385 421/469/385
f 433/482/386 445/495/386 446/496/386 434/483/386
f 434/483/387 446/496/387 447/497/387 435/484/387
f 435/484/388 447/497/388 448/498/388 436/485/388
f 436/485/389 448/498/389 449/499/389 437/486/389
f 437/486/390 449/499/390 450/500/390 438/487/390
f 438/487/391 450/500/391 451/501/391 439/488/391
f 439/489/392 451/502/392 452/503/392 440/490/392
f 440/490/155 452/503/155 453/504/155 441/491/155
f 441/491/154 453/504/154 454/505/154 442/492/154
f 442/492/153 454/505/153 455/506/153 443/493/153
f 443/493/152 455/506/152 456/507/152 444/494/152
f 444/494/393 456/507/393 445/495/393 433/482/393
f 445/495/394 457/508/394 458/509/394 446/496/394
f 446/496/395 458/509/395 459/510/395 447/497/395
f 447/497/396 459/510/396 460/511/396 448/498/396
f 448/498/397 460/511/397 461/512/397 449/499/397
f 449/499/398 461/512/398 462/513/398 450/500/398
f 450/500/399 462/513/399 463/514/399 451/501/399
f 451/502/400 463/515/400 464/516/400 452/503/400
f 452/503/167 464/516/167 465/517/167 453/504/167
f 453/504/166 465/517/166 466/518/166 454/505/166
f 454/505/165 466/518/165 467/519/165 455/506/165
f 455/506/164 467/519/164 468/520/164 456/507/164
f 456/507/401 468/520/401 457/508/401 445/495/401
f 457/508/402 469/521/402 470/522/402 458/509/402
f 458/509/403 470/522/403 471/523/403 459/510/403
f 459/510/404 471/523/404 472/524/404 460/511/404
f 460/511/405 472/524/405 473/525/405 461/512/405
f 461/512/406 473/525/406 474/526/406 462/513/406
f 462/513/407 474/526/407 475/527/407 463/514/407
f 463/515/408 475/528/408 476/529/408 464/516/408
f 464/516/179 476/529/179 477/530/179 465/517/179
f 465/517/178 477/530/178 478/531/178 466/518/178
f 466/518/177 478/531/177 479/532/177 467/519/177
f 467/519/176 479/532/176 480/533/176 468/520/176
f 468/520/409 480/533/409 469/521/409 457/508/409
f 469/521/410 481/534/410 482/535/410 470/522/410
f 470/522/411 482/535/411 483/536/411 471/523/411
f 471/523/412 483/536/412 484/537/412 472/524/412
f 472/524/413 484/537/413 485/538/413 473/525/413
f 473/525/414 485/538/414 486/539/414 474/526/414
f 474/526/415 486/539/415 487/540/415 475/527/415
f 475/528/416 487/541/416 488/542/416 476/529/416
f 476/529/191 488/542/191 489/543/191 477/530/191
f 477/530/190 489/543/190 490/544/190 478/531/190
f 478/531/189 490/544/189 491/545/189 479/532/189
f 479/532/188 491/545/188 492/546/188 480/533/188
f 480/533/417 492/546/417 481/534/417 469/521/417
f 481/534/418 493/547/418 494/548/418 482/535/418
f 482/535/419 494/548/419 495/549/419 483/536/419
f 483/536/420 495/549/420 496/550/420 484/537/420
f 484/537/421 496/550/421 497/551/421 485/538/421
f 485/538/422 497/551/422 498/552/422 486/539/422
f 486/539/423 498/552/423 499/553/423 487/540/423
f 487/541/424 499/554/424 500/555/424 488/542/424
f 488/542/203 500/555/203 501/556/203 489/543/203
f 489/543/202 501/556/202 502/557/202 490/544/202
f 490/544/201 502/557/201 503/558/201 491/545/201
f 491/545/200 503/558/200 504/559/200 492/546/200
f 492/546/425 504/559/425 493/547/425 481/534/425
f 493/547/426 505/560/426 506/561/426 494/548/426
f 494/548/427 506/561/427 507/562/427 495/549/427
f 495/549/428 507/562/428 508/563/428 496/550/428
f 496/550/429 508/563/429 509/564/429 497/551/429
f 497/551/430 509/564/430 510/565/430 498/552/430
f 498/552/431 510/565/431 511/566/431 499/553/431
f 499/554/432 511/567/432 512/568/432 500/555/432
f 500/555/215 512/568/215 513/569/215 501/556/215
f 501/556/214 513/569/214 514/570/214 502/557/214
f 502/557/213 514/570/213 515/571/213 503/558/213
f 503/558/212 515/571/212 516/572/212 504/559/212
f 504/559/433 516/572/433 505/560/433 493/547/433
f 505/560/434 517/573/434 518/574/434 506/561/434
f 506/561/435 518/574/435 519/575/435 507/562/435
f 507/562/436 519/575/436 520/576/436 508/563/436
f 508/563/437 520/576/437 521/577/437 509/564/437
f 509/564/438 521/577/438 522/578/438 510/565/438
f 510/565/439 522/578/439 523/579/439 511/566/439
f 511/567/440 523/580/440 524/581/440 512/568/440
f 512/568/227 524/581/227 525/582/227 513/569/227
f 513/569/226 525/582/226 526/583/226 514/570/226
f 514/570/225 526/583/225 527/584/225 515/571/225
f 515/571/224 527/584/224 528/585/224 516/572/224
f 516/572/441 528/585/441 517/573/441 505/560/441
f 517/573/442 529/586/442 530/587/442 518/574/442
f 518/574/443 530/587/443 531/588/443 519/575/443
f 519/575/444 531/588/444 532/589/444 520/576/444
f 520/576/445 532/589/445 533/590/445 521/577/445
f 521/577/446 533/590/446 534/591/446 522/578/446
f 522/578/447 534/591/447 535/592/447 523/579/447
f 523/580/448 535/593/448 536/594/448 524/581/448
f 524/581/239 536/594/239 537/595/239 525/582/239
f 525/582/238 537/595/238 538/596/238 526/583/238
f 526/583/237 538/596/237 539/597/237 527/584/237
f 527/584/236 539/597/236 540/598/236 528/585/236
f 528/585/449 540/598/449 529/586/449 517/573/449
f 529/586/450 541/599/450 542/600/450 530/587/450
f 530/587/451 542/600/451 543/601/451 531/588/451
f 531/588/452 543/601/452 544/602/452 532/589/452
f 532/589/453 544/602/453 545/603/453 533/590/453
f 533/590/454 545/603/454 546/604/454 534/591/454
f 534/591/455 546/604/455 547/605/455 535/592/455
f 535/593/456 547/606/456 548/607/456 536/594/456
f 536/594/251 548/607/251 549/608/251 537/595/251
f 537/595/250 549/608/250 550/609/250 538/596/250
f 538/596/249 550/609/249 551/610/249 539/597/249
f 539/597/248 551/610/248 552/611/248 540/598/248
f 540/598/457 552/611/457 541/599/457 529/586/457
f 541/599/458 553/612/458 554/613/458 542/600/458
f 542/600/459 554/613/459 555/614/459 543/601/459
f 543/601/460 555/614/460 556/615/460 544/602/460
f 544/602/461 556/615/461 557/616/461 545/603/461
f 545/603/462 557/616/462 558/617/462 546/604/462
f 546/604/463 558/617/463 559/618/463 547/605/463
f 547/606/464 559/619/464 560/620/464 548/607/464
f 548/607/263 560/620/263 561/621/263 549/608/263
f 549/608/262 561/621/262 562/622/262 550/609/262
f 550/609/261 562/622/261 563/623/261 551/610/261
f 551/610/260 563/623/260 564/624/260 552/611/260
f 552/611/465 564/624/465 553/612/465 541/599/465
f 553/612/466 565/625/466 566/626/466 554/613/466
f 554/613/467 566/626/467 567/627/467 555/614/467
f 555/614/468 567/627/468 568/628/468 556/615/468
f 556/615/469 568/628/469 569/629/469 557/616/469
f 557/616/470 569/629/470 570/630/470 558/617/470
f 558/617/471 570/630/471 571/631/471 559/618/471
f 559/619/472 571/632/472 572/633/472 560/620/472
f 560/620/275 572/633/275 573/634/275 561/621/275
f 561/621/274 573/634/274 574/635/274 562/622/274
f 562/622/273 574/635/273 575/636/273 563/623/273
f 563/623/272 575/636/272 576/637/272 564/624/272
f 564/624/473 576/637/473 565/625/473 553/612/473
f 565/625/474 1/1/474 2/4/474 566/626/474
f 566/626/475 2/4/475 3/6/475 567/627/475
f 567/627/476 3/6/476 4/8/476 568/628/476
f 568/628/477 4/8/477 5/10/477 569/629/477
f 569/629/478 5/10/478 6/12/478 570/630/478
f 570/630/479 6/12/479 7/14/479 571/631/479
f 571/632/480 7/15/480 8/18/480 572/633/480
f 572/633/287 8/18/287 9/20/287 573/634/287
f 573/634/286 9/20/286 10/22/286 574/635/286
f 574/635/285 10/22/285 11/24/285 575/636/285
f 575/636/284 11/24/284 12/26/284 576/637/284
f 576/637/481 12/26/481 1/1/481 565/625/481
